<svg version="1.1" id="Layer_1" xmlns="http://www.w3.org/2000/svg" xmlns:xlink="http://www.w3.org/1999/xlink" x="0px" y="0px"
	 width="100%" viewBox="0 0 1024 1024" enable-background="new 0 0 1024 1024" xml:space="preserve">
<path fill="#000000" opacity="1.000000" stroke="none" 
	d="
M1025.000000,390.000000 
	C1025.000000,602.000000 1025.000000,813.500000 1025.000000,1025.000000 
	C683.666687,1025.000000 342.333344,1025.000000 1.000000,1025.000000 
	C1.000000,683.666687 1.000000,342.333344 1.000000,1.000000 
	C342.333344,1.000000 683.666687,1.000000 1025.000000,1.000000 
	C1025.000000,130.500000 1025.000000,260.000000 1025.000000,390.000000 
M544.705688,148.583588 
	C544.500427,149.092682 544.295227,149.601776 544.077515,151.034149 
	C543.624390,163.334915 543.056335,175.633865 542.860046,187.938721 
	C542.834961,189.517532 544.370056,191.952271 545.808777,192.600861 
	C575.702332,206.076935 601.591736,224.882568 623.211060,249.607819 
	C641.886353,270.966095 655.766785,295.072937 664.713318,321.922943 
	C673.427979,348.076843 676.866394,374.936432 675.156372,402.574341 
	C673.818420,424.196594 669.858704,445.145691 662.348938,465.421722 
	C654.537292,486.512878 643.448975,505.812256 629.718567,523.580383 
	C627.458801,526.504639 627.498840,528.552063 629.740723,531.433960 
	C635.566406,538.922791 641.304077,546.503235 646.619507,554.356750 
	C649.475891,558.576965 652.858337,559.930054 657.830383,560.127930 
	C673.073120,560.734741 686.045288,566.933716 695.660339,578.743530 
	C720.142700,608.814087 744.220642,639.213806 768.626709,669.347107 
	C770.068604,671.127441 772.976501,672.706604 775.204651,672.709778 
	C795.182983,672.738159 815.162476,672.174011 835.140625,672.216675 
	C855.473389,672.260132 874.146667,654.234375 874.118408,630.503601 
	C873.945496,485.551575 874.050781,340.599243 874.019348,195.647003 
	C874.014160,171.795197 857.779114,153.269653 834.575256,149.592514 
	C835.126160,149.288544 835.677002,148.984558 836.992920,148.258469 
	C834.157959,147.786118 832.011536,147.428467 828.955688,147.063004 
	C735.658813,147.041626 642.361877,147.020050 549.065002,147.001297 
	C547.899231,147.001053 546.511719,146.643723 545.619141,147.147095 
	C544.252014,147.918015 542.248962,149.261185 542.210632,150.417633 
	C541.924133,159.060287 542.054871,167.716751 542.054871,176.368896 
	C542.737976,174.734100 543.003357,173.003998 543.019836,171.271515 
	C543.076721,165.274490 542.908020,159.271347 543.136475,153.282410 
	C543.203369,151.529770 544.305969,149.816650 544.705688,148.583588 
M181.215698,507.813995 
	C181.186996,509.881561 181.158295,511.949097 181.075104,514.671814 
	C181.083939,515.109741 181.092773,515.547729 181.041718,516.794006 
	C181.043030,517.874329 181.044327,518.954651 180.997345,520.776855 
	C180.072769,523.432861 178.524643,526.045349 178.335388,528.752747 
	C177.645874,538.616089 177.379745,548.510254 177.092163,558.396851 
	C177.077377,558.905151 178.345520,559.450745 178.966934,560.710876 
	C176.955475,565.435425 173.678238,567.429443 169.369522,566.550293 
	C164.813416,565.620667 162.025681,562.363647 162.091965,557.208435 
	C162.363861,536.062256 162.790955,514.918030 163.175781,493.773346 
	C163.190872,492.944702 163.427032,492.120178 163.443161,491.291443 
	C163.650482,480.637817 164.094711,469.976776 163.806610,459.335815 
	C163.750046,457.246155 160.842224,455.233704 159.249390,453.185638 
	C157.599625,454.983978 155.870224,456.718597 154.348679,458.619568 
	C153.893570,459.188202 153.981384,460.217346 153.884521,461.042999 
	C151.908173,477.891693 149.768829,494.723633 148.026245,511.596558 
	C146.608749,525.321716 145.247910,539.078308 144.663177,552.854980 
	C144.263809,562.263977 144.317429,571.881042 145.812881,581.139465 
	C148.360825,596.914062 157.660339,608.793457 170.663574,617.744873 
	C184.399506,627.200684 191.266113,639.774963 190.143967,656.772522 
	C188.818207,676.854492 188.847580,697.048828 186.921387,717.062866 
	C184.007095,747.343994 180.051147,777.529053 176.255508,807.719421 
	C174.432083,822.223022 171.199738,836.609558 172.997360,851.344543 
	C174.508728,863.733276 178.453842,875.050964 190.800995,880.640198 
	C207.027466,887.985596 223.364700,879.586182 229.293365,861.617798 
	C233.288681,849.508972 232.157761,837.269409 230.730255,825.007263 
	C226.769073,790.980835 222.727646,756.963684 219.031494,722.644165 
	C219.552414,724.334106 220.073334,726.024109 220.594238,727.714050 
	C220.844193,727.684387 221.094131,727.654724 221.344070,727.625061 
	C220.824631,719.880798 220.305176,712.136475 219.785721,704.392151 
	C219.490265,704.398743 219.194794,704.405334 218.899338,704.411865 
	C218.899338,708.206177 218.899338,712.000549 218.899338,715.794861 
	C218.617783,715.703918 218.316833,715.647278 218.064651,715.504456 
	C217.969986,715.450928 217.988632,715.197327 217.991516,714.135559 
	C217.666122,707.325073 217.358170,700.513672 217.011459,693.704285 
	C216.419495,682.078186 215.815552,670.452759 215.194107,658.828247 
	C214.381744,643.632996 218.462051,630.644653 231.155411,621.018555 
	C242.098373,612.719849 251.987198,603.465881 257.075409,590.072510 
	C262.495300,575.806152 262.826385,561.015991 261.705872,546.216736 
	C259.823090,521.350769 257.286926,496.533234 254.904373,471.707001 
	C254.445663,466.927399 253.847321,462.074799 252.465591,457.512634 
	C251.909561,455.676727 249.053864,453.391754 247.277939,453.419678 
	C245.753052,453.443634 243.271988,456.317108 242.983932,458.201111 
	C242.367554,462.232239 242.877518,466.438812 242.959045,470.572876 
	C243.382523,492.047516 243.816330,513.521973 244.152908,535.688782 
	C244.067154,536.784180 243.981400,537.879517 243.895645,538.974915 
	C243.400833,538.967102 242.906006,538.959290 242.411194,538.951477 
	C242.411194,526.430908 242.411194,513.910400 242.411194,501.389862 
	C241.973434,501.401550 241.535675,501.413239 241.097916,501.424927 
	C241.415131,506.041809 241.972412,510.657074 242.004379,515.275940 
	C242.098877,528.922180 241.926727,542.570129 242.012497,556.216492 
	C242.026566,558.458374 242.817078,560.695312 242.809845,563.510742 
	C239.911392,566.563049 236.529144,567.700745 232.517700,565.963623 
	C228.536026,564.239441 227.051102,560.980408 227.018478,556.821716 
	C226.987381,552.859131 226.853378,548.897461 226.851227,544.250244 
	C226.932175,543.160706 227.013107,542.071106 227.094055,540.981567 
	C227.413757,540.986633 227.733459,540.991699 228.053162,540.996765 
	C228.053162,546.628601 228.053162,552.260498 228.053162,557.892334 
	C228.515915,557.874084 228.978668,557.855835 229.441422,557.837585 
	C228.314148,526.893494 227.186859,495.949432 226.059586,465.005341 
	C225.684372,465.000885 225.309143,464.996429 224.933929,464.991974 
	C224.933929,468.653320 224.933929,472.314667 224.933929,475.976013 
	C224.707932,475.966492 224.481918,475.956940 224.255920,475.947388 
	C224.167892,475.301239 224.079865,474.655060 224.018509,473.085541 
	C223.617493,468.120209 223.620010,463.071198 222.616486,458.230774 
	C222.216141,456.299713 219.593903,454.829285 217.983139,453.149170 
	C216.325409,454.958527 213.694901,456.542542 213.212662,458.624176 
	C212.211777,462.944702 212.076233,467.528748 212.066147,472.005524 
	C212.001907,500.500671 212.106430,528.996155 212.061325,557.491394 
	C212.052002,563.371826 208.645630,566.738281 203.229736,566.747681 
	C198.349823,566.756165 195.078171,563.170837 194.916092,557.491333 
	C194.631180,547.507629 194.258774,537.523193 194.191711,527.537231 
	C194.049576,506.374756 194.121902,485.210876 193.987122,464.048340 
	C193.970444,461.432434 193.555954,458.705170 192.688370,456.255249 
	C192.235504,454.976410 190.385284,453.374237 189.181503,453.386810 
	C187.681381,453.402405 185.353439,454.613556 184.876541,455.873688 
	C183.788559,458.748474 183.610809,461.967712 183.003784,465.873413 
	C183.003784,467.838654 183.003784,469.803894 183.003784,471.769135 
	C182.613831,471.748047 182.223892,471.726929 181.833939,471.705841 
	C181.833939,468.508057 181.833939,465.310303 181.833939,462.112518 
	C180.557297,475.165314 179.761612,488.198120 179.270386,501.242371 
	C179.200043,503.110779 180.600708,505.034607 181.215698,507.813995 
M159.961472,315.442169 
	C159.820877,315.716095 159.680298,315.990051 159.539703,316.263977 
	C159.421646,316.198090 159.222321,316.153656 159.198318,316.062897 
	C159.001740,315.319641 158.837845,314.567780 158.664017,313.818512 
	C156.801086,322.580780 155.872742,331.308502 158.675247,339.971924 
	C158.847794,340.505341 160.240906,340.643890 161.276474,341.651062 
	C164.336212,350.117188 168.652679,357.612579 176.462128,362.724823 
	C189.572571,371.307098 203.852615,372.122375 218.730530,369.551453 
	C237.572159,366.295532 254.365051,357.750702 271.232697,349.363098 
	C272.882782,348.542633 274.835388,348.330536 276.647552,347.836060 
	C276.699097,349.757294 277.119354,351.753540 276.746124,353.588379 
	C272.186371,376.005310 271.656128,398.523499 274.996918,421.122345 
	C279.597839,452.245331 291.459259,480.494720 310.320923,505.533569 
	C331.260468,533.330750 357.894104,554.342529 389.811157,568.393738 
	C420.024292,581.694824 451.576996,586.876099 484.433441,582.822205 
	C512.956543,579.302979 539.356201,569.476807 564.014343,554.904236 
	C567.340332,552.938599 569.283813,553.345093 571.541565,556.263916 
	C583.356079,571.537659 595.258484,586.743652 607.200195,601.918274 
	C609.532410,604.881836 609.995300,607.817017 609.432495,611.633972 
	C607.564392,624.303284 609.702148,636.134277 618.055115,646.430908 
	C631.898499,663.495544 645.642151,680.641602 659.360535,697.807129 
	C689.294312,735.262329 719.126770,772.798645 749.134399,810.194458 
	C757.042664,820.049744 764.749817,830.226868 773.796753,838.964661 
	C783.637939,848.469482 796.002625,852.807617 810.082947,849.943237 
	C845.700562,842.697449 850.709961,806.036255 834.570496,785.821411 
	C826.469543,775.675049 818.281738,765.598022 810.157043,755.470581 
	C768.907227,704.052734 727.343567,652.881226 686.621094,601.048889 
	C674.791992,585.992554 661.622375,577.643555 642.137085,581.459229 
	C640.604370,581.759338 638.053467,580.217163 636.939148,578.782776 
	C624.274414,562.479736 611.829712,546.006042 599.238159,529.645691 
	C597.143921,526.924683 597.763367,524.954407 599.892700,522.671692 
	C604.657837,517.563477 609.712830,512.636047 613.842957,507.039520 
	C644.648499,465.296906 656.505493,418.594818 650.205994,367.120331 
	C645.430054,328.095215 630.345459,293.605133 604.444153,264.172577 
	C577.359802,233.395645 543.570618,213.329300 503.544800,203.985870 
	C498.032990,202.699219 497.571564,201.855301 500.753265,197.304932 
	C509.689301,184.524872 513.663635,170.601288 509.820068,155.227097 
	C504.767456,135.016693 490.404541,123.443550 471.735626,116.841034 
	C442.668549,106.561081 413.044189,107.946365 383.564972,114.722282 
	C348.011017,122.894485 316.039337,139.170349 286.158325,159.738861 
	C282.907227,161.976761 281.207520,161.801971 278.913879,158.632233 
	C273.058533,150.540451 266.941376,142.635635 260.832245,134.730743 
	C253.960648,125.839264 242.483795,124.758163 235.169098,132.211624 
	C228.060074,139.455521 228.494583,149.117905 236.142838,157.689835 
	C242.014236,164.270325 247.614685,171.094528 253.550735,177.614517 
	C256.131989,180.449722 255.653687,182.386124 252.930664,184.597382 
	C249.702103,187.219193 246.623932,190.028015 243.510956,192.790024 
	C216.036514,217.166946 191.934540,244.314011 174.383270,276.856812 
	C167.869003,288.935272 162.536270,301.443024 159.961472,315.442169 
M376.931976,650.613892 
	C369.201141,626.673584 363.225708,602.149048 353.700378,578.206116 
	C352.355652,579.385437 351.648621,579.841492 351.151825,580.465027 
	C337.469299,597.639954 321.313812,612.311218 303.947876,625.541321 
	C288.068726,637.638672 271.523285,648.867920 255.154800,660.312988 
	C249.189209,664.484131 248.327621,667.696655 253.024689,673.301636 
	C257.190338,678.272461 261.493164,683.182129 266.210876,687.612427 
	C268.376556,689.646179 271.630280,691.518921 274.477966,691.656433 
	C286.926361,692.257812 299.406494,692.220947 311.875702,692.364441 
	C317.542389,692.429626 323.210449,692.375549 328.877869,692.375549 
	C329.015900,692.883545 329.153900,693.391541 329.291901,693.899597 
	C328.156738,694.958496 327.125702,696.164673 325.869843,697.052917 
	C316.488617,703.688354 307.049500,710.241821 297.656525,716.860718 
	C292.336823,720.609375 292.045380,722.618713 295.938080,727.890381 
	C296.628967,728.825928 297.373260,729.732117 298.173798,730.575073 
	C324.359833,758.148254 352.189972,783.960327 382.316864,807.158447 
	C406.192169,825.542786 430.687531,843.120239 454.791931,861.210083 
	C459.106354,864.447937 462.665588,864.391113 466.909668,861.208069 
	C475.567963,854.714478 484.392365,848.436401 493.257568,842.225464 
	C541.093994,808.711731 586.667664,772.546326 626.285828,729.342224 
	C632.091675,723.010803 632.132202,722.145508 625.039917,717.301819 
	C614.344849,709.997681 603.669800,702.664368 592.574890,695.061462 
	C594.495605,693.843567 595.881042,692.237915 597.360474,692.145996 
	C606.328247,691.588684 615.318237,691.393555 624.298889,691.029663 
	C625.491760,690.981323 626.673767,690.662842 628.543213,690.358337 
	C620.845215,680.791504 613.721741,671.803528 606.450684,662.936462 
	C597.092957,651.524719 588.474182,639.187012 589.375183,624.022034 
	C590.243591,609.403931 586.064331,597.804321 576.237488,587.600342 
	C574.633911,585.935303 573.342896,583.938782 572.089050,581.979248 
	C571.375793,580.864502 571.030640,579.514221 570.519714,578.270081 
	C569.817810,578.694397 569.115967,579.118713 568.414124,579.543091 
	C567.290100,582.956482 566.062988,586.339844 565.058350,589.787964 
	C556.487732,619.204468 548.380920,648.763794 539.323730,678.029236 
	C522.358154,732.848328 495.822998,783.165161 465.622070,831.679688 
	C463.110718,835.713928 461.519714,835.731140 458.948303,831.258484 
	C446.170288,809.033142 432.892700,787.063171 420.984650,764.376709 
	C402.115448,728.428345 388.103790,690.470154 376.931976,650.613892 
M396.276337,678.469299 
	C398.883759,678.227234 401.831177,678.690369 404.041595,677.624817 
	C415.544006,672.079895 426.938995,666.294983 438.186646,660.249878 
	C441.298859,658.577209 443.275299,657.723633 446.462982,660.441528 
	C454.705231,667.469177 468.835236,667.973877 476.700500,661.587585 
	C480.002869,658.906189 482.653809,658.533936 486.031952,660.905518 
	C487.930573,662.238342 489.990784,663.387085 492.091797,664.377747 
	C501.704742,668.910645 511.158112,673.881104 521.061890,677.665771 
	C528.523132,680.516968 532.472961,677.972229 533.132263,670.093628 
	C534.017883,659.510437 533.882568,648.833435 533.972534,638.194824 
	C534.038696,630.378296 534.203247,622.519470 533.507141,614.752686 
	C532.897278,607.947815 529.483459,605.973999 522.788696,607.317139 
	C520.997742,607.676514 519.143677,608.019287 517.500427,608.768555 
	C506.769958,613.661438 496.037872,618.557495 485.426086,623.699768 
	C482.456329,625.138794 480.426636,625.643372 477.440674,623.242493 
	C468.783569,616.281860 454.468842,616.565796 445.884766,623.696106 
	C442.969849,626.117371 440.947784,625.897461 438.038330,623.810913 
	C427.103638,615.969116 415.082703,610.382324 401.898987,607.462708 
	C394.392517,605.800415 390.480957,607.950134 390.395966,615.537903 
	C390.187439,634.153137 390.692169,652.783203 391.336304,671.392578 
	C391.416229,673.701477 394.078583,675.920898 396.276337,678.469299 
M676.729126,869.344421 
	C677.607910,870.935913 678.338867,872.633240 679.390442,874.100952 
	C684.555115,881.309143 693.900391,882.946899 701.473816,878.057007 
	C708.605347,873.452515 711.054260,863.989929 707.032715,856.577576 
	C703.049866,849.236572 694.908630,845.992859 687.062866,848.621033 
	C678.832397,851.378113 674.947510,858.685791 676.729126,869.344421 
M556.785095,847.957581 
	C549.075073,849.122131 544.741150,852.964600 542.891479,860.275574 
	C541.215271,866.900940 543.785950,873.766479 549.456421,877.807922 
	C554.793091,881.611450 561.830750,881.690552 567.815186,878.014343 
	C573.659363,874.424500 576.561768,866.631226 574.654480,859.650391 
	C572.584717,852.074768 566.840698,848.117615 556.785095,847.957581 
M626.431946,847.943604 
	C615.876282,848.305115 609.846313,854.293762 609.860840,864.401245 
	C609.873840,873.415405 616.369141,880.431702 625.165771,880.933777 
	C633.523682,881.410828 641.477905,874.652527 642.081360,866.561523 
	C642.891785,855.693176 637.713623,849.175720 626.431946,847.943604 
M874.993835,603.500000 
	C874.993835,614.290283 874.993835,625.080566 874.993835,635.870789 
	C875.231323,635.868958 875.468811,635.867065 875.706299,635.865173 
	C875.706299,486.679901 875.706299,337.494629 875.706299,187.263779 
	C875.296448,188.614395 875.120911,188.922729 875.120789,189.231140 
	C875.070618,326.987427 875.032288,464.743713 874.993835,603.500000 
M271.001251,381.051636 
	C271.001251,389.667023 271.001251,398.282410 271.001251,406.897797 
	C271.224121,406.895905 271.446991,406.894012 271.669861,406.892120 
	C271.669861,397.033173 271.669861,387.174194 271.669861,377.315247 
	C271.493469,377.312164 271.317047,377.309082 271.140656,377.306000 
	C271.096741,378.285431 271.052856,379.264862 271.001251,381.051636 
M159.515320,309.495728 
	C159.515320,309.495728 159.489426,309.505859 159.515320,309.495728 
z"/>
<path fill="#001C3B" opacity="1.000000" stroke="none" 
	d="
M160.041672,315.024750 
	C162.536270,301.443024 167.869003,288.935272 174.383270,276.856812 
	C191.934540,244.314011 216.036514,217.166946 243.510956,192.790024 
	C246.623932,190.028015 249.702103,187.219193 252.930664,184.597382 
	C255.653687,182.386124 256.131989,180.449722 253.550735,177.614517 
	C247.614685,171.094528 242.014236,164.270325 236.142838,157.689835 
	C228.494583,149.117905 228.060074,139.455521 235.169098,132.211624 
	C242.483795,124.758163 253.960648,125.839264 260.832245,134.730743 
	C266.941376,142.635635 273.058533,150.540451 278.913879,158.632233 
	C281.207520,161.801971 282.907227,161.976761 286.158325,159.738861 
	C316.039337,139.170349 348.011017,122.894485 383.564972,114.722282 
	C413.044189,107.946365 442.668549,106.561081 471.735626,116.841034 
	C490.404541,123.443550 504.767456,135.016693 509.820068,155.227097 
	C513.663635,170.601288 509.689301,184.524872 500.753265,197.304932 
	C497.571564,201.855301 498.032990,202.699219 503.544800,203.985870 
	C543.570618,213.329300 577.359802,233.395645 604.444153,264.172577 
	C630.345459,293.605133 645.430054,328.095215 650.205994,367.120331 
	C656.505493,418.594818 644.648499,465.296906 613.842957,507.039520 
	C609.712830,512.636047 604.657837,517.563477 599.892700,522.671692 
	C597.763367,524.954407 597.143921,526.924683 599.238159,529.645691 
	C611.829712,546.006042 624.274414,562.479736 636.939148,578.782776 
	C638.053467,580.217163 640.604370,581.759338 642.137085,581.459229 
	C661.622375,577.643555 674.791992,585.992554 686.621094,601.048889 
	C727.343567,652.881226 768.907227,704.052734 810.157043,755.470581 
	C818.281738,765.598022 826.469543,775.675049 834.570496,785.821411 
	C850.709961,806.036255 845.700562,842.697449 810.082947,849.943237 
	C796.002625,852.807617 783.637939,848.469482 773.796753,838.964661 
	C764.749817,830.226868 757.042664,820.049744 749.134399,810.194458 
	C719.126770,772.798645 689.294312,735.262329 659.360535,697.807129 
	C645.642151,680.641602 631.898499,663.495544 618.055115,646.430908 
	C609.702148,636.134277 607.564392,624.303284 609.432495,611.633972 
	C609.995300,607.817017 609.532410,604.881836 607.200195,601.918274 
	C595.258484,586.743652 583.356079,571.537659 571.541565,556.263916 
	C569.283813,553.345093 567.340332,552.938599 564.014343,554.904236 
	C539.356201,569.476807 512.956543,579.302979 484.433441,582.822205 
	C451.576996,586.876099 420.024292,581.694824 389.811157,568.393738 
	C357.894104,554.342529 331.260468,533.330750 310.320923,505.533569 
	C291.459259,480.494720 279.597839,452.245331 274.996918,421.122345 
	C271.656128,398.523499 272.186371,376.005310 276.746124,353.588379 
	C277.119354,351.753540 276.699097,349.757294 276.647552,347.836060 
	C274.835388,348.330536 272.882782,348.542633 271.232697,349.363098 
	C254.365051,357.750702 237.572159,366.295532 218.730530,369.551453 
	C203.852615,372.122375 189.572571,371.307098 176.462128,362.724823 
	C168.652679,357.612579 164.336212,350.117188 161.305420,341.079346 
	C160.955322,339.671478 160.576263,338.835297 160.149445,337.752808 
	C160.086792,337.339844 160.071915,337.173218 160.215759,336.726349 
	C160.071899,334.965607 159.769333,333.485138 159.363342,331.594757 
	C159.196350,329.789917 159.132782,328.394958 159.335114,326.854980 
	C159.431473,325.472717 159.261948,324.235504 159.100128,322.668579 
	C159.166122,321.903076 159.224380,321.467316 159.551910,320.839417 
	C159.894684,318.773132 159.968185,316.898956 160.041672,315.024750 
M608.536438,459.055023 
	C620.795105,431.688690 625.028381,403.123871 622.128906,373.282867 
	C618.754333,338.552887 605.318726,308.255859 581.916565,282.709137 
	C545.648010,243.116959 499.984070,226.016479 446.806396,230.322601 
	C410.779022,233.239944 379.108246,247.949219 353.037170,272.869232 
	C313.567413,310.596344 296.403320,357.036560 303.041107,411.556763 
	C308.257019,454.398254 328.127045,489.500275 361.458984,516.683167 
	C387.439667,537.871033 417.548065,549.936523 450.937469,552.701538 
	C482.813293,555.341248 512.923950,548.394653 540.730286,532.535339 
	C570.800415,515.384949 593.506836,491.219879 608.536438,459.055023 
z"/>
<path fill="#001C3B" opacity="1.000000" stroke="none" 
	d="
M834.181396,149.886276 
	C857.779114,153.269653 874.014160,171.795197 874.019348,195.647003 
	C874.050781,340.599243 873.945496,485.551575 874.118408,630.503601 
	C874.146667,654.234375 855.473389,672.260132 835.140625,672.216675 
	C815.162476,672.174011 795.182983,672.738159 775.204651,672.709778 
	C772.976501,672.706604 770.068604,671.127441 768.626709,669.347107 
	C744.220642,639.213806 720.142700,608.814087 695.660339,578.743530 
	C686.045288,566.933716 673.073120,560.734741 657.830383,560.127930 
	C652.858337,559.930054 649.475891,558.576965 646.619507,554.356750 
	C641.304077,546.503235 635.566406,538.922791 629.740723,531.433960 
	C627.498840,528.552063 627.458801,526.504639 629.718567,523.580383 
	C643.448975,505.812256 654.537292,486.512878 662.348938,465.421722 
	C669.858704,445.145691 673.818420,424.196594 675.156372,402.574341 
	C676.866394,374.936432 673.427979,348.076843 664.713318,321.922943 
	C655.766785,295.072937 641.886353,270.966095 623.211060,249.607819 
	C601.591736,224.882568 575.702332,206.076935 545.808777,192.600861 
	C544.370056,191.952271 542.834961,189.517532 542.860046,187.938721 
	C543.056335,175.633865 543.624390,163.334915 544.542542,150.538010 
	C572.310059,150.023270 599.612610,150.000885 626.915100,149.986847 
	C696.003845,149.951324 765.092651,149.919540 834.181396,149.886276 
M731.513672,269.914917 
	C731.700745,269.597168 731.887878,269.279449 731.930298,268.999634 
	C731.930298,268.999634 731.967651,269.144440 732.536011,268.964905 
	C732.717285,268.631561 732.898560,268.298218 732.937988,267.978119 
	C732.937988,267.978119 732.950623,268.120026 733.594910,268.019196 
	C734.085022,267.697571 734.575134,267.375946 735.734863,267.032379 
	C739.316223,267.402496 742.897522,267.772614 746.866760,268.703857 
	C748.218994,269.515381 749.571228,270.326874 751.016968,271.052612 
	C751.016968,271.052612 750.931396,270.958893 751.086914,271.507385 
	C751.405090,271.692596 751.723328,271.877808 752.033875,271.952972 
	C752.033875,271.952972 751.923767,271.960052 752.081970,272.514984 
	C752.400146,272.702759 752.718262,272.890564 752.936768,272.931396 
	C752.936768,272.931396 752.789490,273.030609 753.035278,273.619873 
	C753.676758,274.446198 754.318237,275.272491 754.982727,276.036987 
	C754.982727,276.036987 754.917480,276.027405 755.026611,276.598236 
	C755.345459,277.076050 755.664307,277.553864 756.007629,278.010071 
	C756.007629,278.010071 755.976929,278.012421 756.050354,278.654938 
	C756.357727,278.834686 756.665039,279.014404 756.630554,278.908234 
	C756.630554,278.908234 756.343689,279.249298 756.624695,279.965881 
	C757.065857,281.632660 757.507019,283.299408 758.004883,284.982086 
	C758.004883,284.982086 757.954773,284.948090 757.227112,285.221405 
	C753.237427,285.586212 749.379211,286.273163 749.751282,291.577393 
	C750.100464,296.555756 754.138855,296.664062 757.729980,296.998840 
	C761.479980,297.348419 765.254089,297.438690 768.953552,298.355377 
	C766.701843,307.009460 760.336304,312.981323 754.190552,320.736450 
	C767.561218,318.739288 768.475220,331.436676 775.334839,337.088745 
	C781.567566,331.137451 783.120056,320.730499 793.403076,319.788605 
	C788.573669,312.389130 784.118042,305.562256 779.154419,297.957031 
	C783.812195,297.573303 786.938171,297.262970 790.071411,297.070679 
	C794.255615,296.813873 799.165222,297.030151 799.759949,291.548431 
	C800.383179,285.803925 795.367126,285.529694 790.158081,284.771881 
	C792.379700,280.390747 793.771484,276.040283 796.438049,272.710724 
	C802.621338,264.989990 811.104736,264.133423 817.265137,270.299255 
	C817.265137,270.299255 817.633606,270.486206 818.010620,270.348846 
	C818.010620,270.348846 817.874695,269.971283 817.796936,270.703796 
	C818.202515,270.853821 818.608154,271.003845 818.615479,270.936157 
	C818.615479,270.936157 818.396240,271.333588 818.787354,272.015533 
	C819.813660,274.977142 820.839966,277.938751 822.106018,281.592285 
	C824.293030,280.531067 826.406311,279.505646 828.300293,278.236725 
	C828.300293,278.236725 828.058289,278.457642 828.734985,278.390808 
	C829.211182,277.951019 829.687439,277.511230 830.027344,277.006561 
	C830.027344,277.006561 829.962585,277.142944 830.538757,276.971100 
	C830.719849,276.635925 830.900879,276.300751 830.962402,275.967682 
	C830.962402,275.967682 830.964050,276.087189 831.544678,275.969818 
	C831.723694,275.634949 831.902649,275.300079 831.965942,274.966248 
	C831.965942,274.966248 831.966431,275.081970 832.545288,274.959290 
	C832.729492,274.624084 832.913696,274.288849 832.971436,273.946045 
	C832.971436,273.946045 832.963257,274.072510 833.492554,273.927704 
	C833.684326,273.625885 833.876038,273.324036 834.007507,273.013062 
	C834.007507,273.013062 834.036621,273.066650 834.579102,272.684753 
	C835.226074,271.514008 835.873047,270.343262 836.318787,269.186615 
	C836.318787,269.186615 836.336426,269.387573 836.833008,268.829285 
	C839.508789,262.359344 840.294189,255.926086 836.528259,249.672623 
	C836.528259,249.672623 836.615967,249.600784 836.298584,249.029068 
	C835.542664,247.999939 834.786743,246.970825 833.998962,245.990112 
	C833.998962,245.990112 834.055786,245.978287 833.885620,245.455551 
	C833.577576,245.280350 833.269531,245.105148 832.994324,245.068207 
	C832.994324,245.068207 833.132690,245.036011 832.955383,244.460907 
	C832.622253,244.272293 832.289062,244.083679 831.946167,244.025391 
	C831.946167,244.025391 832.076416,244.035706 831.947266,243.481522 
	C831.628845,243.289154 831.310486,243.096802 831.022583,242.979706 
	C831.022583,242.979706 831.097778,242.948929 830.736145,242.409210 
	C830.146362,242.218658 829.556641,242.028091 828.989197,242.026779 
	C828.989197,242.026779 829.178467,242.004730 829.154297,241.373657 
	C828.770081,241.218124 828.385864,241.062607 828.032166,240.976654 
	C828.032166,240.976654 828.101562,240.945877 827.619751,240.391251 
	C821.093689,237.289703 814.506042,236.654037 807.920288,239.922211 
	C807.920288,239.922211 807.944946,239.823074 807.307129,239.920273 
	C806.550598,240.300934 805.794006,240.681595 804.361450,241.163803 
	C792.493286,249.337296 788.527222,261.762665 785.969788,275.815887 
	C785.438843,279.035736 784.907898,282.255585 784.348022,285.651062 
	C782.570740,285.651062 780.994873,285.651062 778.122314,285.651062 
	C779.362732,277.193848 780.546265,269.124725 781.996399,260.329132 
	C783.966919,254.204865 785.937439,248.080597 788.180359,241.266373 
	C792.233215,228.526749 792.927429,215.975525 786.029358,203.956985 
	C786.029358,203.956985 786.139221,204.008698 786.021118,203.328262 
	C785.698853,203.142685 785.376587,202.957123 785.360046,203.090500 
	C785.360046,203.090500 785.679565,202.785370 785.477173,202.124786 
	C784.998535,201.398727 784.519897,200.672653 783.994202,199.982986 
	C783.994202,199.982986 784.048889,199.964203 783.959351,199.406784 
	C783.636658,198.949066 783.313904,198.491348 783.014832,198.008270 
	C783.014832,198.008270 782.980591,198.004364 782.875671,197.418442 
	C782.408936,196.769531 781.942200,196.120636 781.455444,195.634125 
	C781.455444,195.634125 781.618408,195.648529 781.321228,195.088150 
	C780.736023,194.218185 780.150818,193.348206 779.548584,192.551682 
	C779.548584,192.551682 779.624023,192.552490 779.272583,191.986664 
	C778.207764,190.613190 777.142944,189.239716 776.056641,187.930084 
	C776.056641,187.930084 776.123962,187.927277 775.945190,187.382675 
	C774.583496,185.195816 773.486633,185.251343 772.791260,187.999924 
	C772.791260,187.999924 773.023376,187.889526 772.397705,187.936874 
	C772.230408,188.308838 772.063110,188.680801 772.011658,188.952820 
	C772.011658,188.952820 771.911926,188.836838 771.339355,189.198608 
	C769.698425,191.715317 768.057434,194.232025 766.659668,197.091934 
	C766.659668,197.091934 767.003723,196.849945 766.334778,196.827728 
	C766.189819,197.237671 766.044861,197.647614 766.014038,197.941528 
	C766.014038,197.941528 765.898254,197.827133 765.350586,198.222855 
	C764.746887,199.444016 764.143188,200.665192 763.825317,202.060089 
	C763.825317,202.060089 763.999207,201.774384 763.400391,201.884964 
	C763.264465,202.256500 763.128601,202.628036 762.802551,203.112228 
	C762.802551,203.112228 762.900330,203.310425 762.348328,203.839798 
	C755.943604,216.281082 756.510498,229.013962 760.554138,241.980453 
	C763.551208,251.590866 766.284668,261.283508 769.009277,271.636414 
	C769.053772,272.104401 769.098328,272.572418 769.021484,273.882629 
	C769.403992,277.772339 769.786499,281.662048 770.211548,285.983643 
	C767.736877,285.757660 766.009094,285.599884 764.281311,285.442108 
	C764.691528,285.137238 765.101685,284.832397 765.511841,284.527527 
	C762.306458,275.034119 759.101074,265.540710 755.895020,255.556091 
	C755.768005,255.218338 755.527649,255.013840 755.035095,254.354889 
	C754.697876,253.868179 754.360596,253.381470 754.010559,252.965363 
	C754.010559,252.965363 754.081238,252.977859 753.945496,252.387436 
	C753.624695,252.202774 753.303894,252.018127 752.937927,251.993881 
	C752.937927,251.993881 753.098206,252.039597 753.105652,251.330261 
	C752.745605,251.154053 752.385559,250.977844 752.376160,251.085419 
	C752.376160,251.085419 752.660889,250.735535 752.404053,250.142532 
	C751.973267,249.698761 751.542480,249.254974 751.107361,248.882477 
	C751.107361,248.882477 751.178711,248.885101 750.963867,248.317871 
	C750.387146,247.762924 749.810425,247.207993 748.984436,246.780640 
	C748.984436,246.780640 749.111206,247.030319 749.102905,246.360535 
	C748.727600,246.199554 748.352234,246.038574 748.259766,245.993729 
	C748.259766,245.993729 748.376770,245.711258 748.020203,245.163773 
	C746.801758,244.236069 745.583313,243.308365 744.379456,242.507095 
	C744.379456,242.507095 744.505066,242.486359 743.958618,242.042999 
	C735.627808,237.413437 727.285217,235.995895 718.969482,241.991898 
	C718.969482,241.991898 718.953918,241.925903 718.344543,242.145142 
	C717.172729,243.390594 716.000916,244.636032 714.912720,246.003952 
	C714.912720,246.003952 715.035278,245.920578 714.471558,246.051544 
	C714.290344,246.381012 714.109070,246.710464 714.045471,246.953796 
	C714.045471,246.953796 713.959534,246.836044 713.455566,247.048843 
	C713.338257,247.364792 713.220947,247.680725 712.890442,248.497681 
	C707.436279,262.710754 709.473938,271.395020 720.562134,279.383087 
	C722.513245,280.365570 724.464355,281.348083 726.472717,282.359406 
	C727.510620,278.564667 728.398499,275.318329 729.701111,271.911102 
	C729.924988,271.690399 730.037964,271.422821 730.522339,270.864594 
	C730.700134,270.560547 730.877991,270.256531 730.944824,269.973267 
	C730.944824,269.973267 730.964966,270.084381 731.513672,269.914917 
M827.728088,488.094879 
	C828.893982,487.459137 830.059875,486.823364 831.885620,485.914948 
	C837.414917,480.221405 836.022766,472.264618 828.343872,469.475983 
	C826.867493,469.310455 825.391174,469.001587 823.914673,469.000397 
	C789.030640,468.972260 754.146545,468.963165 719.262573,469.017273 
	C717.497437,469.020020 715.733154,469.620605 713.280518,470.094818 
	C707.633606,473.958984 706.738525,478.039429 710.413452,485.538788 
	C713.919556,486.685516 717.418396,488.801636 720.932983,488.828217 
	C754.343018,489.080902 787.755798,488.992493 821.167725,488.944702 
	C823.120605,488.941925 825.072754,488.443420 827.728088,488.094879 
M832.556519,589.765442 
	C835.781921,586.249207 835.737549,582.164062 834.163696,578.097839 
	C832.848450,574.699585 830.114746,573.000977 826.328491,573.005615 
	C800.006958,573.037781 773.684082,572.913574 747.365845,573.209351 
	C744.865295,573.237427 741.813354,575.297119 740.042603,577.313721 
	C737.323059,580.411072 737.453491,584.333191 739.491333,588.074768 
	C741.478882,591.723938 744.571594,592.997192 748.590332,592.988525 
	C773.912354,592.933716 799.234619,592.977661 824.556641,592.920776 
	C826.168762,592.917114 827.779602,592.339600 829.902649,591.896057 
	C830.594727,591.347961 831.286804,590.799866 832.556519,589.765442 
M711.282959,537.905884 
	C713.812622,538.926819 716.338684,540.825989 718.872437,540.836121 
	C753.314636,540.974243 787.757874,540.850525 822.996521,540.804871 
	C824.300598,540.688660 825.609436,540.610474 826.907959,540.449341 
	C831.369080,539.895813 834.215149,537.403076 834.836304,532.973572 
	C835.474121,528.425476 835.297058,523.969299 829.468994,521.342224 
	C827.546387,520.918823 825.624573,520.130371 823.701050,520.126221 
	C788.906677,520.051147 754.111267,519.969421 719.318909,520.245544 
	C716.248047,520.269897 713.196777,522.763916 709.739685,524.743530 
	C707.188721,529.228455 707.142822,533.467224 711.282959,537.905884 
M827.319458,365.523529 
	C821.506165,365.360077 815.693176,365.064941 809.879578,365.055328 
	C780.056580,365.006012 750.233337,365.016357 720.410217,365.044250 
	C716.182007,365.048218 711.937561,365.228668 709.480347,370.586121 
	C705.896179,378.874695 710.000183,385.344696 719.590027,385.705688 
	C729.541565,386.080292 739.516541,385.848480 749.481262,385.852325 
	C773.287964,385.861481 797.094666,385.871948 820.901245,385.822510 
	C823.212097,385.817719 825.587524,385.666016 827.818787,385.117828 
	C832.505615,383.966339 835.599670,380.016113 835.354492,375.249207 
	C835.115234,370.597992 833.288208,366.827606 827.319458,365.523529 
M828.851074,436.038330 
	C834.048950,433.663727 835.917725,430.094391 834.922852,424.440918 
	C834.148193,420.038635 830.411316,417.094055 825.036682,417.086243 
	C789.398804,417.034515 753.760742,417.033173 718.122742,417.073730 
	C712.571045,417.080017 709.228455,419.913666 708.230530,425.029724 
	C707.195496,430.335999 709.370789,433.961273 715.652588,436.516785 
	C716.967407,436.661163 718.282166,436.930756 719.597046,436.931641 
	C754.159973,436.954803 788.722900,436.961273 823.285767,436.915314 
	C824.902039,436.913147 826.517578,436.401123 828.851074,436.038330 
z"/>
<path fill="#001C3B" opacity="1.000000" stroke="none" 
	d="
M377.022217,651.006592 
	C388.103790,690.470154 402.115448,728.428345 420.984650,764.376709 
	C432.892700,787.063171 446.170288,809.033142 458.948303,831.258484 
	C461.519714,835.731140 463.110718,835.713928 465.622070,831.679688 
	C495.822998,783.165161 522.358154,732.848328 539.323730,678.029236 
	C548.380920,648.763794 556.487732,619.204468 565.058350,589.787964 
	C566.062988,586.339844 567.290100,582.956482 568.414124,579.543091 
	C569.115967,579.118713 569.817810,578.694397 570.519714,578.270081 
	C571.030640,579.514221 571.375793,580.864502 572.089050,581.979248 
	C573.342896,583.938782 574.633911,585.935303 576.237488,587.600342 
	C586.064331,597.804321 590.243591,609.403931 589.375183,624.022034 
	C588.474182,639.187012 597.092957,651.524719 606.450684,662.936462 
	C613.721741,671.803528 620.845215,680.791504 628.543213,690.358337 
	C626.673767,690.662842 625.491760,690.981323 624.298889,691.029663 
	C615.318237,691.393555 606.328247,691.588684 597.360474,692.145996 
	C595.881042,692.237915 594.495605,693.843567 592.574890,695.061462 
	C603.669800,702.664368 614.344849,709.997681 625.039917,717.301819 
	C632.132202,722.145508 632.091675,723.010803 626.285828,729.342224 
	C586.667664,772.546326 541.093994,808.711731 493.257568,842.225464 
	C484.392365,848.436401 475.567963,854.714478 466.909668,861.208069 
	C462.665588,864.391113 459.106354,864.447937 454.791931,861.210083 
	C430.687531,843.120239 406.192169,825.542786 382.316864,807.158447 
	C352.189972,783.960327 324.359833,758.148254 298.173798,730.575073 
	C297.373260,729.732117 296.628967,728.825928 295.938080,727.890381 
	C292.045380,722.618713 292.336823,720.609375 297.656525,716.860718 
	C307.049500,710.241821 316.488617,703.688354 325.869843,697.052917 
	C327.125702,696.164673 328.156738,694.958496 329.291901,693.899597 
	C329.153900,693.391541 329.015900,692.883545 328.877869,692.375549 
	C323.210449,692.375549 317.542389,692.429626 311.875702,692.364441 
	C299.406494,692.220947 286.926361,692.257812 274.477966,691.656433 
	C271.630280,691.518921 268.376556,689.646179 266.210876,687.612427 
	C261.493164,683.182129 257.190338,678.272461 253.024689,673.301636 
	C248.327621,667.696655 249.189209,664.484131 255.154800,660.312988 
	C271.523285,648.867920 288.068726,637.638672 303.947876,625.541321 
	C321.313812,612.311218 337.469299,597.639954 351.151825,580.465027 
	C351.648621,579.841492 352.355652,579.385437 353.700378,578.206116 
	C363.225708,602.149048 369.201141,626.673584 377.022217,651.006592 
z"/>
<path fill="#001C3B" opacity="1.000000" stroke="none" 
	d="
M181.045624,520.034973 
	C181.044327,518.954651 181.043030,517.874329 181.272217,516.302124 
	C181.378326,515.212402 181.253952,514.614563 181.129578,514.016663 
	C181.158295,511.949097 181.186996,509.881561 181.526566,507.195557 
	C181.889862,504.379700 181.942291,502.182251 181.975555,499.536621 
	C181.991257,496.392273 182.026123,493.696136 182.366394,490.811951 
	C186.419952,482.153656 183.748840,473.585144 183.063263,465.047028 
	C183.610809,461.967712 183.788559,458.748474 184.876541,455.873688 
	C185.353439,454.613556 187.681381,453.402405 189.181503,453.386810 
	C190.385284,453.374237 192.235504,454.976410 192.688370,456.255249 
	C193.555954,458.705170 193.970444,461.432434 193.987122,464.048340 
	C194.121902,485.210876 194.049576,506.374756 194.191711,527.537231 
	C194.258774,537.523193 194.631180,547.507629 194.916092,557.491333 
	C195.078171,563.170837 198.349823,566.756165 203.229736,566.747681 
	C208.645630,566.738281 212.052002,563.371826 212.061325,557.491394 
	C212.106430,528.996155 212.001907,500.500671 212.066147,472.005524 
	C212.076233,467.528748 212.211777,462.944702 213.212662,458.624176 
	C213.694901,456.542542 216.325409,454.958527 217.983124,453.149170 
	C219.593903,454.829285 222.216141,456.299713 222.616486,458.230774 
	C223.620010,463.071198 223.617493,468.120209 223.819672,473.904572 
	C223.996780,478.481110 224.372742,482.238586 224.805450,486.462769 
	C224.924301,492.277313 224.986404,497.625214 224.867798,503.266724 
	C224.837524,505.060181 224.987961,506.560028 225.207870,508.462219 
	C225.510971,514.242981 225.744598,519.621460 225.793152,525.367554 
	C225.993576,532.135315 226.379105,538.535339 226.764618,544.935364 
	C226.853378,548.897461 226.987381,552.859131 227.018478,556.821716 
	C227.051102,560.980408 228.536026,564.239441 232.517700,565.963623 
	C236.529144,567.700745 239.911392,566.563049 243.245804,563.026489 
	C244.107407,561.657898 244.533051,560.773499 244.985764,559.919556 
	C245.012833,559.950073 244.933838,559.942688 245.135590,559.587036 
	C245.935593,552.903564 246.533813,546.575684 247.132050,540.247864 
	C247.628952,540.198914 248.125854,540.149963 248.622757,540.101074 
	C247.164032,538.399536 245.705292,536.697998 244.246567,534.996460 
	C243.816330,513.521973 243.382523,492.047516 242.959045,470.572876 
	C242.877518,466.438812 242.367554,462.232239 242.983932,458.201111 
	C243.271988,456.317108 245.753052,453.443634 247.277939,453.419678 
	C249.053864,453.391754 251.909561,455.676727 252.465591,457.512634 
	C253.847321,462.074799 254.445663,466.927399 254.904373,471.707001 
	C257.286926,496.533234 259.823090,521.350769 261.705872,546.216736 
	C262.826385,561.015991 262.495300,575.806152 257.075409,590.072510 
	C251.987198,603.465881 242.098373,612.719849 231.155411,621.018555 
	C218.462051,630.644653 214.381744,643.632996 215.194107,658.828247 
	C215.815552,670.452759 216.419495,682.078186 217.011459,693.704285 
	C217.358170,700.513672 217.666122,707.325073 217.795792,714.914917 
	C217.972672,718.110474 218.345276,720.526672 218.717896,722.942871 
	C222.727646,756.963684 226.769073,790.980835 230.730255,825.007263 
	C232.157761,837.269409 233.288681,849.508972 229.293365,861.617798 
	C223.364700,879.586182 207.027466,887.985596 190.800995,880.640198 
	C178.453842,875.050964 174.508728,863.733276 172.997360,851.344543 
	C171.199738,836.609558 174.432083,822.223022 176.255508,807.719421 
	C180.051147,777.529053 184.007095,747.343994 186.921387,717.062866 
	C188.847580,697.048828 188.818207,676.854492 190.143967,656.772522 
	C191.266113,639.774963 184.399506,627.200684 170.663574,617.744873 
	C157.660339,608.793457 148.360825,596.914062 145.812881,581.139465 
	C144.317429,571.881042 144.263809,562.263977 144.663177,552.854980 
	C145.247910,539.078308 146.608749,525.321716 148.026245,511.596558 
	C149.768829,494.723633 151.908173,477.891693 153.884521,461.042999 
	C153.981384,460.217346 153.893570,459.188202 154.348679,458.619568 
	C155.870224,456.718597 157.599625,454.983978 159.249390,453.185638 
	C160.842224,455.233704 163.750046,457.246155 163.806610,459.335815 
	C164.094711,469.976776 163.650482,480.637817 163.443161,491.291443 
	C163.427032,492.120178 163.190872,492.944702 163.175781,493.773346 
	C162.790955,514.918030 162.363861,536.062256 162.091965,557.208435 
	C162.025681,562.363647 164.813416,565.620667 169.369522,566.550293 
	C173.678238,567.429443 176.955475,565.435425 178.984406,560.357422 
	C179.001862,560.003906 178.990875,560.030151 179.200562,559.672119 
	C179.703552,552.856750 179.996872,546.399414 180.559692,539.752747 
	C180.875305,537.368347 180.921432,535.173279 180.954514,532.652893 
	C180.957581,531.894409 180.973709,531.461121 181.137466,530.650757 
	C181.205276,526.860779 181.125443,523.447876 181.045624,520.034973 
z"/>
<path fill="#001C3B" opacity="1.000000" stroke="none" 
	d="
M395.910339,678.325562 
	C394.078583,675.920898 391.416229,673.701477 391.336304,671.392578 
	C390.692169,652.783203 390.187439,634.153137 390.395966,615.537903 
	C390.480957,607.950134 394.392517,605.800415 401.898987,607.462708 
	C415.082703,610.382324 427.103638,615.969116 438.038330,623.810913 
	C440.947784,625.897461 442.969849,626.117371 445.884766,623.696106 
	C454.468842,616.565796 468.783569,616.281860 477.440674,623.242493 
	C480.426636,625.643372 482.456329,625.138794 485.426086,623.699768 
	C496.037872,618.557495 506.769958,613.661438 517.500427,608.768555 
	C519.143677,608.019287 520.997742,607.676514 522.788696,607.317139 
	C529.483459,605.973999 532.897278,607.947815 533.507141,614.752686 
	C534.203247,622.519470 534.038696,630.378296 533.972534,638.194824 
	C533.882568,648.833435 534.017883,659.510437 533.132263,670.093628 
	C532.472961,677.972229 528.523132,680.516968 521.061890,677.665771 
	C511.158112,673.881104 501.704742,668.910645 492.091797,664.377747 
	C489.990784,663.387085 487.930573,662.238342 486.031952,660.905518 
	C482.653809,658.533936 480.002869,658.906189 476.700500,661.587585 
	C468.835236,667.973877 454.705231,667.469177 446.462982,660.441528 
	C443.275299,657.723633 441.298859,658.577209 438.186646,660.249878 
	C426.938995,666.294983 415.544006,672.079895 404.041595,677.624817 
	C401.831177,678.690369 398.883759,678.227234 395.910339,678.325562 
z"/>
<path fill="#001C3C" opacity="1.000000" stroke="none" 
	d="
M676.590210,868.963379 
	C674.947510,858.685791 678.832397,851.378113 687.062866,848.621033 
	C694.908630,845.992859 703.049866,849.236572 707.032715,856.577576 
	C711.054260,863.989929 708.605347,873.452515 701.473816,878.057007 
	C693.900391,882.946899 684.555115,881.309143 679.390442,874.100952 
	C678.338867,872.633240 677.607910,870.935913 676.590210,868.963379 
z"/>
<path fill="#001C3C" opacity="1.000000" stroke="none" 
	d="
M557.219116,847.947754 
	C566.840698,848.117615 572.584717,852.074768 574.654480,859.650391 
	C576.561768,866.631226 573.659363,874.424500 567.815186,878.014343 
	C561.830750,881.690552 554.793091,881.611450 549.456421,877.807922 
	C543.785950,873.766479 541.215271,866.900940 542.891479,860.275574 
	C544.741150,852.964600 549.075073,849.122131 557.219116,847.947754 
z"/>
<path fill="#001C3C" opacity="1.000000" stroke="none" 
	d="
M626.864868,847.948975 
	C637.713623,849.175720 642.891785,855.693176 642.081360,866.561523 
	C641.477905,874.652527 633.523682,881.410828 625.165771,880.933777 
	C616.369141,880.431702 609.873840,873.415405 609.860840,864.401245 
	C609.846313,854.293762 615.876282,848.305115 626.864868,847.948975 
z"/>
<path fill="#00021F" opacity="1.000000" stroke="none" 
	d="
M834.378296,149.739395 
	C765.092651,149.919540 696.003845,149.951324 626.915100,149.986847 
	C599.612610,150.000885 572.310059,150.023270 544.548767,150.076370 
	C544.295227,149.601776 544.500427,149.092682 545.294617,148.311829 
	C637.097534,148.021103 728.311584,148.012085 819.525574,147.944748 
	C822.972229,147.942215 826.418579,147.374939 829.865051,147.070831 
	C832.011536,147.428467 834.157959,147.786118 836.992920,148.258469 
	C835.677002,148.984558 835.126160,149.288544 834.378296,149.739395 
z"/>
<path fill="#001535" opacity="1.000000" stroke="none" 
	d="
M874.993835,603.000000 
	C875.032288,464.743713 875.070618,326.987427 875.120789,189.231140 
	C875.120911,188.922729 875.296448,188.614395 875.706299,187.263779 
	C875.706299,337.494629 875.706299,486.679901 875.706299,635.865173 
	C875.468811,635.867065 875.231323,635.868958 874.993835,635.870789 
	C874.993835,625.080566 874.993835,614.290283 874.993835,603.000000 
z"/>
<path fill="#001535" opacity="1.000000" stroke="none" 
	d="
M829.410400,147.066925 
	C826.418579,147.374939 822.972229,147.942215 819.525574,147.944748 
	C728.311584,148.012085 637.097534,148.021103 545.408691,148.062759 
	C544.305969,149.816650 543.203369,151.529770 543.136475,153.282410 
	C542.908020,159.271347 543.076721,165.274490 543.019836,171.271515 
	C543.003357,173.003998 542.737976,174.734100 542.054871,176.368896 
	C542.054871,167.716751 541.924133,159.060287 542.210632,150.417633 
	C542.248962,149.261185 544.252014,147.918015 545.619141,147.147095 
	C546.511719,146.643723 547.899231,147.001053 549.065002,147.001297 
	C642.361877,147.020050 735.658813,147.041626 829.410400,147.066925 
z"/>
<path fill="#001535" opacity="1.000000" stroke="none" 
	d="
M226.807922,544.592773 
	C226.379105,538.535339 225.993576,532.135315 225.818375,525.800842 
	C226.028687,528.214600 226.028687,530.562805 226.028687,532.911011 
	C227.038879,525.665161 227.116867,518.447937 226.954178,511.236176 
	C226.930008,510.164276 225.771896,509.117981 225.138397,508.059875 
	C224.987961,506.560028 224.837524,505.060181 225.083344,502.916443 
	C225.235977,496.847076 224.992340,491.421600 224.748703,485.996094 
	C224.372742,482.238586 223.996780,478.481110 223.806335,474.366272 
	C224.079865,474.655060 224.167892,475.301239 224.255920,475.947388 
	C224.481918,475.956940 224.707932,475.966492 224.933929,475.976013 
	C224.933929,472.314667 224.933929,468.653320 224.933929,464.991974 
	C225.309143,464.996429 225.684372,465.000885 226.059586,465.005341 
	C227.186859,495.949432 228.314148,526.893494 229.441422,557.837585 
	C228.978668,557.855835 228.515915,557.874084 228.053162,557.892334 
	C228.053162,552.260498 228.053162,546.628601 228.053162,540.996765 
	C227.733459,540.991699 227.413757,540.986633 227.094055,540.981567 
	C227.013107,542.071106 226.932175,543.160706 226.807922,544.592773 
z"/>
<path fill="#001535" opacity="1.000000" stroke="none" 
	d="
M244.199738,535.342651 
	C245.705292,536.697998 247.164032,538.399536 248.622757,540.101074 
	C248.125854,540.149963 247.628952,540.198914 247.132050,540.247864 
	C246.533813,546.575684 245.935593,552.903564 245.125366,559.131714 
	C244.913361,555.445496 244.913361,551.859009 244.913361,548.272522 
	C244.477463,548.303894 244.041565,548.335327 243.605682,548.366699 
	C244.056671,552.207458 244.507675,556.048279 244.958679,559.889038 
	C244.533051,560.773499 244.107407,561.657898 243.465256,562.738403 
	C242.817078,560.695312 242.026566,558.458374 242.012497,556.216492 
	C241.926727,542.570129 242.098877,528.922180 242.004379,515.275940 
	C241.972412,510.657074 241.415131,506.041809 241.097916,501.424927 
	C241.535675,501.413239 241.973434,501.401550 242.411194,501.389862 
	C242.411194,513.910400 242.411194,526.430908 242.411194,538.951477 
	C242.906006,538.959290 243.400833,538.967102 243.895645,538.974915 
	C243.981400,537.879517 244.067154,536.784180 244.199738,535.342651 
z"/>
<path fill="#001C3B" opacity="1.000000" stroke="none" 
	d="
M183.033524,465.460205 
	C183.748840,473.585144 186.419952,482.153656 182.346588,490.354248 
	C182.021378,486.747589 182.021378,483.410583 182.021378,480.073578 
	C181.544998,480.094086 181.068619,480.114594 180.592255,480.135101 
	C181.059738,486.751678 181.527222,493.368256 181.994705,499.984833 
	C181.942291,502.182251 181.889862,504.379700 181.579010,506.754944 
	C180.600708,505.034607 179.200043,503.110779 179.270386,501.242371 
	C179.761612,488.198120 180.557297,475.165314 181.833939,462.112518 
	C181.833939,465.310303 181.833939,468.508057 181.833939,471.705841 
	C182.223892,471.726929 182.613831,471.748047 183.003784,471.769135 
	C183.003784,469.803894 183.003784,467.838654 183.033524,465.460205 
z"/>
<path fill="#001C3B" opacity="1.000000" stroke="none" 
	d="
M181.021484,520.405884 
	C181.125443,523.447876 181.205276,526.860779 180.786163,530.815918 
	C179.831833,533.186707 179.014008,535.009460 178.984100,536.845032 
	C178.858215,544.571289 178.967590,552.301453 178.990875,560.030151 
	C178.990875,560.030151 179.001862,560.003906 179.009109,559.991455 
	C178.345520,559.450745 177.077377,558.905151 177.092163,558.396851 
	C177.379745,548.510254 177.645874,538.616089 178.335388,528.752747 
	C178.524643,526.045349 180.072769,523.432861 181.021484,520.405884 
z"/>
<path fill="#001535" opacity="1.000000" stroke="none" 
	d="
M159.466766,332.004669 
	C159.769333,333.485138 160.071899,334.965607 160.174988,336.515137 
	C159.865082,336.284271 159.754623,335.984344 159.644165,335.684418 
	C159.465240,335.856934 159.102890,336.122375 159.135895,336.187561 
	C159.451477,336.810730 159.833923,337.400085 160.197205,337.999115 
	C160.576263,338.835297 160.955322,339.671478 161.200256,340.736908 
	C160.240906,340.643890 158.847794,340.505341 158.675247,339.971924 
	C155.872742,331.308502 156.801086,322.580780 158.664017,313.818512 
	C158.837845,314.567780 159.001740,315.319641 159.198318,316.062897 
	C159.222321,316.153656 159.421646,316.198090 159.539703,316.263977 
	C159.680298,315.990051 159.820877,315.716095 160.001572,315.233459 
	C159.968185,316.898956 159.894684,318.773132 159.386932,320.682526 
	C159.124039,324.480042 159.295395,328.242340 159.466766,332.004669 
z"/>
<path fill="#001C3B" opacity="1.000000" stroke="none" 
	d="
M218.874695,722.793518 
	C218.345276,720.526672 217.972672,718.110474 217.777847,715.364624 
	C217.988632,715.197327 217.969986,715.450928 218.064651,715.504456 
	C218.316833,715.647278 218.617783,715.703918 218.899338,715.794861 
	C218.899338,712.000549 218.899338,708.206177 218.899338,704.411865 
	C219.194794,704.405334 219.490265,704.398743 219.785721,704.392151 
	C220.305176,712.136475 220.824631,719.880798 221.344070,727.625061 
	C221.094131,727.654724 220.844193,727.684387 220.594238,727.714050 
	C220.073334,726.024109 219.552414,724.334106 218.874695,722.793518 
z"/>
<path fill="#001C3B" opacity="1.000000" stroke="none" 
	d="
M271.005127,380.647949 
	C271.052856,379.264862 271.096741,378.285431 271.140656,377.306000 
	C271.317047,377.309082 271.493469,377.312164 271.669861,377.315247 
	C271.669861,387.174194 271.669861,397.033173 271.669861,406.892120 
	C271.446991,406.894012 271.224121,406.895905 271.001251,406.897797 
	C271.001251,398.282410 271.001251,389.667023 271.005127,380.647949 
z"/>
<path fill="#001C3B" opacity="1.000000" stroke="none" 
	d="
M181.102341,514.344238 
	C181.253952,514.614563 181.378326,515.212402 181.302155,515.897949 
	C181.092773,515.547729 181.083939,515.109741 181.102341,514.344238 
z"/>
<path fill="#001535" opacity="1.000000" stroke="none" 
	d="
M159.502380,309.500793 
	C159.489426,309.505859 159.515320,309.495728 159.502380,309.500793 
z"/>
<path fill="#000001" opacity="1.000000" stroke="none" 
	d="
M608.383728,459.400391 
	C593.506836,491.219879 570.800415,515.384949 540.730286,532.535339 
	C512.923950,548.394653 482.813293,555.341248 450.937469,552.701538 
	C417.548065,549.936523 387.439667,537.871033 361.458984,516.683167 
	C328.127045,489.500275 308.257019,454.398254 303.041107,411.556763 
	C296.403320,357.036560 313.567413,310.596344 353.037170,272.869232 
	C379.108246,247.949219 410.779022,233.239944 446.806396,230.322601 
	C499.984070,226.016479 545.648010,243.116959 581.916565,282.709137 
	C605.318726,308.255859 618.754333,338.552887 622.128906,373.282867 
	C625.028381,403.123871 620.795105,431.688690 608.383728,459.400391 
M537.205933,438.376038 
	C532.543030,433.894379 528.032898,429.238556 523.176575,424.977295 
	C517.703247,420.174591 512.415405,414.850555 506.166260,411.305664 
	C492.687958,403.659851 477.337769,405.979584 466.018829,416.543427 
	C463.243134,419.133972 461.499512,418.691010 458.899475,416.409119 
	C446.201904,405.265259 429.361023,403.431458 415.517456,412.835907 
	C408.332886,417.716644 402.733795,424.876801 396.096252,430.635925 
	C391.492920,434.630096 386.730164,438.786072 381.334106,441.433960 
	C374.536987,444.769379 367.065002,444.143524 361.142670,439.031067 
	C358.234009,436.520142 356.670074,432.451508 354.327576,428.824615 
	C349.988281,430.912506 348.526825,435.156036 348.008148,439.936920 
	C347.040955,448.851501 350.344299,456.317322 356.230255,462.700317 
	C367.056244,474.440460 380.903046,480.124695 396.502167,481.413849 
	C421.578583,483.486176 443.308228,476.643219 459.297028,456.069580 
	C461.949066,452.657013 463.326050,453.196991 466.167145,456.094635 
	C471.711151,461.748932 477.262268,467.885223 483.986694,471.803070 
	C505.662170,484.431854 528.652161,485.384399 551.688477,475.808838 
	C563.880798,470.740814 573.683105,462.481903 577.446838,448.997650 
	C579.759827,440.710815 576.731689,432.444122 569.827576,428.653107 
	C569.018433,435.088562 565.418762,439.222992 559.610352,441.662689 
	C551.707642,444.982056 544.637878,443.098633 537.205933,438.376038 
M551.637573,305.751526 
	C527.307434,291.014893 495.194244,300.633820 484.415497,327.551941 
	C483.015076,331.049225 480.938965,330.935638 478.096497,329.819366 
	C467.507599,325.660950 456.831451,325.885223 446.423065,330.132935 
	C442.097321,331.898376 440.417267,330.993896 438.656311,326.795502 
	C430.699585,307.825256 414.320435,298.166290 392.284607,298.982361 
	C374.481415,299.641693 357.787659,312.474243 351.835876,330.488495 
	C350.508820,334.505127 348.488098,336.257874 344.313354,335.957581 
	C339.506897,335.611786 337.335419,338.334259 337.015625,342.865173 
	C336.630554,348.321228 338.538239,351.632629 343.420929,351.671997 
	C348.981903,351.716797 350.165253,354.703674 351.313019,359.187958 
	C356.351990,378.875061 374.438660,392.878235 394.523895,393.028748 
	C419.020020,393.212280 436.769379,378.945770 441.671692,354.802979 
	C442.416321,351.135986 443.970520,348.879333 447.266846,347.264038 
	C455.126160,343.412811 463.290222,343.237000 471.653931,344.716797 
	C477.698639,345.786285 481.149689,348.886505 482.108917,355.474304 
	C483.902222,367.789886 490.465271,377.780640 500.669342,384.580261 
	C516.469971,395.109222 533.428162,396.351746 550.374146,387.285553 
	C566.827759,378.482788 573.908264,363.831879 573.926575,345.665283 
	C573.933350,338.988068 572.710205,332.305389 571.932129,325.638733 
	C571.862549,325.042419 570.954285,324.526520 570.403320,324.007507 
	C569.274475,322.944092 568.086365,321.941345 566.988342,320.847717 
	C562.070129,315.949219 557.174927,311.027618 551.637573,305.751526 
z"/>
<path fill="#000000" opacity="1.000000" stroke="none" 
	d="
M159.363342,331.594757 
	C159.295395,328.242340 159.124039,324.480042 159.117661,320.874634 
	C159.224380,321.467316 159.166122,321.903076 159.065399,323.067749 
	C159.038361,324.864410 159.053787,325.932220 159.069214,327.000031 
	C159.132782,328.394958 159.196350,329.789917 159.363342,331.594757 
z"/>
<path fill="#001535" opacity="1.000000" stroke="none" 
	d="
M159.335114,326.854980 
	C159.053787,325.932220 159.038361,324.864410 159.057678,323.397461 
	C159.261948,324.235504 159.431473,325.472717 159.335114,326.854980 
z"/>
<path fill="#000000" opacity="1.000000" stroke="none" 
	d="
M160.149445,337.752808 
	C159.833923,337.400085 159.451477,336.810730 159.135895,336.187561 
	C159.102890,336.122375 159.465240,335.856934 159.644165,335.684418 
	C159.754623,335.984344 159.865082,336.284271 160.016296,336.795410 
	C160.071915,337.173218 160.086792,337.339844 160.149445,337.752808 
z"/>
<path fill="#D7B061" opacity="1.000000" stroke="none" 
	d="
M762.900269,203.310425 
	C762.900330,203.310425 762.802551,203.112228 763.057617,202.840881 
	C763.541565,202.304489 763.770386,202.039444 763.999207,201.774384 
	C763.999207,201.774384 763.825317,202.060089 764.010010,201.803497 
	C764.762512,200.306992 765.330383,199.067062 765.898254,197.827118 
	C765.898254,197.827133 766.014038,197.941528 766.093506,197.761185 
	C766.449890,197.337204 766.726807,197.093582 767.003723,196.849945 
	C767.003723,196.849945 766.659668,197.091934 766.879395,196.795532 
	C768.703308,193.945038 770.307617,191.390930 771.911926,188.836823 
	C771.911926,188.836838 772.011658,188.952820 772.104614,188.777115 
	C772.472839,188.364120 772.748108,188.126831 773.023376,187.889542 
	C773.023376,187.889526 772.791260,187.999924 773.163757,187.944061 
	C774.398804,187.901230 775.261414,187.914246 776.123962,187.927277 
	C776.123962,187.927277 776.056641,187.930084 776.080566,188.264099 
	C777.277710,189.916214 778.450867,191.234344 779.624023,192.552490 
	C779.624023,192.552490 779.548584,192.551682 779.520752,192.875092 
	C780.201416,194.015182 780.909912,194.831863 781.618408,195.648529 
	C781.618408,195.648529 781.455444,195.634125 781.466187,195.881775 
	C781.978149,196.754410 782.479370,197.379395 782.980591,198.004364 
	C782.980591,198.004364 783.014832,198.008270 783.135254,198.265015 
	C783.520081,199.002579 783.784485,199.483383 784.048889,199.964203 
	C784.048889,199.964203 783.994202,199.982986 784.079285,200.296509 
	C784.669434,201.335159 785.174500,202.060272 785.679565,202.785370 
	C785.679565,202.785370 785.360046,203.090500 785.389648,203.135498 
	C785.659302,203.456558 785.899292,203.732620 786.139221,204.008698 
	C786.139221,204.008698 786.029358,203.956985 786.052979,204.309311 
	C786.258728,205.800400 786.225952,207.028397 786.656250,208.064011 
	C790.647400,217.669098 791.070129,227.338303 787.687378,237.227249 
	C787.212280,238.615952 787.807983,240.370895 787.907959,241.956329 
	C785.937439,248.080597 783.966919,254.204865 781.569214,260.868835 
	C777.013672,268.763947 777.859741,276.765411 778.354858,284.657593 
	C778.407104,285.490540 780.516174,286.849640 781.614563,286.796600 
	C783.000671,286.729675 785.301819,285.661163 785.502319,284.677063 
	C786.139709,281.550049 785.984924,278.261597 786.136230,275.035522 
	C788.527222,261.762665 792.493286,249.337296 804.925598,241.249283 
	C806.308167,240.830872 807.126526,240.326965 807.944946,239.823059 
	C807.944946,239.823074 807.920288,239.922211 808.316040,239.933853 
	C815.174988,240.278946 821.638306,240.612411 828.101562,240.945877 
	C828.101562,240.945877 828.032166,240.976654 828.239380,241.104721 
	C828.690491,241.490112 828.934448,241.747421 829.178467,242.004730 
	C829.178467,242.004730 828.989197,242.026779 829.244629,242.049179 
	C830.032654,242.364029 830.565186,242.656464 831.097778,242.948914 
	C831.097778,242.948929 831.022583,242.979706 831.209717,243.113281 
	C831.623291,243.509811 831.849854,243.772766 832.076416,244.035706 
	C832.076416,244.035706 831.946167,244.025391 832.165649,244.124817 
	C832.634338,244.494827 832.883484,244.765427 833.132690,245.036011 
	C833.132690,245.036011 832.994324,245.068207 833.182373,245.148621 
	C833.598938,245.478790 833.827332,245.728531 834.055786,245.978287 
	C834.055786,245.978287 833.998962,245.990112 834.048340,246.321503 
	C834.937073,247.635529 835.776550,248.618149 836.615967,249.600784 
	C836.615967,249.600784 836.528259,249.672623 836.421631,250.051208 
	C836.322144,256.749054 836.329285,263.068298 836.336426,269.387573 
	C836.336426,269.387573 836.318787,269.186615 836.088501,269.329956 
	C835.251038,270.671082 834.643799,271.868866 834.036621,273.066650 
	C834.036621,273.066650 834.007507,273.013062 833.868164,273.210480 
	C833.473633,273.629425 833.218445,273.850952 832.963257,274.072510 
	C832.963257,274.072510 832.971436,273.946045 832.875916,274.164032 
	C832.509033,274.615326 832.237732,274.848633 831.966431,275.081970 
	C831.966431,275.081970 831.965942,274.966248 831.864868,275.182434 
	C831.497192,275.628143 831.230591,275.857635 830.964050,276.087158 
	C830.964050,276.087189 830.962402,275.967682 830.863159,276.183655 
	C830.496826,276.647400 830.229675,276.895142 829.962585,277.142944 
	C829.962585,277.142944 830.027344,277.006561 829.798340,277.155945 
	C829.065674,277.689392 828.561951,278.073517 828.058289,278.457642 
	C828.058289,278.457642 828.300293,278.236725 828.013916,278.320465 
	C824.568298,279.044037 822.347046,278.478729 821.534241,274.742249 
	C821.251038,273.440125 819.485046,272.460480 818.396240,271.333588 
	C818.396240,271.333588 818.615479,270.936157 818.563538,270.905945 
	C818.299316,270.574219 818.087036,270.272736 817.874695,269.971283 
	C817.874695,269.971283 818.010620,270.348846 817.770691,270.315765 
	C817.443298,270.069031 817.276123,269.961487 817.029236,269.960052 
	C811.104736,264.133423 802.621338,264.989990 796.438049,272.710724 
	C793.771484,276.040283 792.379700,280.390747 790.158081,284.771881 
	C795.367126,285.529694 800.383179,285.803925 799.759949,291.548431 
	C799.165222,297.030151 794.255615,296.813873 790.071411,297.070679 
	C786.938171,297.262970 783.812195,297.573303 779.154419,297.957031 
	C784.118042,305.562256 788.573669,312.389130 793.403076,319.788605 
	C783.120056,320.730499 781.567566,331.137451 775.334839,337.088745 
	C768.475220,331.436676 767.561218,318.739288 754.190552,320.736450 
	C760.336304,312.981323 766.701843,307.009460 768.722229,297.750916 
	C766.609924,296.755920 764.739990,296.296967 762.845337,295.990936 
	C760.072021,295.542938 757.156677,295.566437 754.548340,294.671051 
	C753.187439,294.203888 751.516541,292.195740 751.525085,290.893707 
	C751.533142,289.672913 753.503540,288.392029 754.735291,287.275330 
	C755.710327,286.391357 756.874573,285.716034 757.954773,284.948059 
	C757.954773,284.948090 758.004883,284.982086 758.171509,284.698425 
	C757.673340,282.692963 757.008484,280.971130 756.343628,279.249329 
	C756.343689,279.249298 756.630554,278.908234 756.618286,278.868408 
	C756.396301,278.556519 756.186646,278.284485 755.976929,278.012421 
	C755.976929,278.012421 756.007629,278.010071 755.871399,277.763184 
	C755.462585,277.020020 755.190002,276.523712 754.917480,276.027405 
	C754.917480,276.027405 754.982727,276.036987 754.885620,275.750671 
	C754.122131,274.653107 753.455811,273.841858 752.789490,273.030609 
	C752.789490,273.030609 752.936768,272.931396 752.774353,272.845154 
	C752.382568,272.492615 752.153137,272.226318 751.923767,271.960052 
	C751.923767,271.960052 752.033875,271.952972 751.821655,271.858093 
	C751.383484,271.495087 751.157471,271.226990 750.931396,270.958893 
	C750.931396,270.958893 751.016968,271.052612 750.904602,270.789948 
	C749.354431,269.732422 747.916687,268.937561 746.478882,268.142700 
	C742.897522,267.772614 739.316223,267.402496 735.108276,267.113007 
	C733.971313,267.502411 733.460999,267.811218 732.950623,268.120026 
	C732.950623,268.120026 732.937988,267.978119 732.848938,268.184631 
	C732.495789,268.642242 732.231750,268.893341 731.967651,269.144440 
	C731.967651,269.144440 731.930298,268.999634 731.844482,269.192749 
	C731.494080,269.618683 731.229492,269.851532 730.964966,270.084381 
	C730.964966,270.084381 730.944824,269.973267 730.863525,270.182129 
	C730.534729,270.630157 730.287354,270.869293 730.039917,271.108398 
	C730.037964,271.422821 729.924988,271.690399 729.177856,272.162903 
	C727.407593,274.589478 726.160645,276.764252 724.926941,278.915833 
	C723.432983,278.915833 721.730347,278.915833 720.027771,278.915833 
	C709.473938,271.395020 707.436279,262.710754 713.156616,248.067810 
	C713.596802,247.367355 713.775696,247.100052 713.959534,246.836044 
	C713.959534,246.836044 714.045471,246.953796 714.141785,246.782043 
	C714.503845,246.380386 714.769531,246.150482 715.035278,245.920578 
	C715.035278,245.920578 714.912720,246.003952 715.213257,245.898865 
	C716.660583,244.504501 717.807251,243.215210 718.953918,241.925903 
	C718.953918,241.925903 718.969482,241.991898 719.341614,241.947540 
	C725.429138,241.444519 731.140686,240.730835 736.861694,240.643921 
	C739.399597,240.605362 741.956665,241.833313 744.505066,242.486359 
	C744.505066,242.486359 744.379456,242.507095 744.462952,242.799072 
	C745.823242,243.964447 747.099976,244.837860 748.376770,245.711258 
	C748.376770,245.711258 748.259766,245.993729 748.351196,246.085114 
	C748.665466,246.461105 748.888306,246.745712 749.111206,247.030319 
	C749.111206,247.030319 748.984436,246.780640 749.168030,247.036652 
	C749.960632,247.823456 750.569702,248.354279 751.178711,248.885101 
	C751.178711,248.885101 751.107361,248.882477 751.211121,249.144562 
	C751.763550,249.849609 752.212219,250.292572 752.660889,250.735535 
	C752.660889,250.735535 752.376160,251.085419 752.415527,251.123260 
	C752.669312,251.453934 752.883728,251.746765 753.098206,252.039597 
	C753.098206,252.039597 752.937927,251.993881 753.158325,252.078934 
	C753.612854,252.435272 753.847046,252.706573 754.081238,252.977875 
	C754.081238,252.977859 754.010559,252.965363 754.130249,253.205719 
	C754.557922,253.944916 754.865967,254.443741 755.173950,254.942566 
	C755.527649,255.013840 755.768005,255.218338 755.761475,256.076050 
	C757.426758,262.792664 759.298218,268.969543 760.991943,275.194794 
	C761.775635,278.075134 761.889282,281.174103 762.947754,283.927490 
	C763.451782,285.238770 765.340332,286.460419 766.816772,286.807343 
	C767.888672,287.059296 770.425110,285.765198 770.404541,285.234253 
	C770.246582,281.159454 769.622314,277.102722 769.142822,273.040405 
	C769.098328,272.572418 769.053772,272.104401 769.259399,270.970398 
	C769.470642,268.684723 769.760498,266.972534 769.335022,265.461761 
	C767.676758,259.573181 765.619568,253.794800 764.031616,247.889130 
	C761.646301,239.018051 757.856384,230.359268 759.817627,220.766296 
	C761.000732,214.979462 761.882935,209.131119 762.900269,203.310425 
z"/>
<path fill="#000000" opacity="1.000000" stroke="none" 
	d="
M714.902405,436.149078 
	C709.370789,433.961273 707.195496,430.335999 708.230530,425.029724 
	C709.228455,419.913666 712.571045,417.080017 718.122742,417.073730 
	C753.760742,417.033173 789.398804,417.034515 825.036682,417.086243 
	C830.411316,417.094055 834.148193,420.038635 834.922852,424.440918 
	C835.917725,430.094391 834.048950,433.663727 828.433472,436.037903 
	C828.015869,436.037476 827.896179,435.951233 827.575745,435.770264 
	C824.833435,435.090240 822.412720,434.163849 819.989441,434.156799 
	C787.944641,434.063263 755.899292,434.051483 723.854675,434.182098 
	C720.917908,434.194061 717.985657,435.323029 715.013855,435.987061 
	C714.976379,436.040833 714.902405,436.149078 714.902405,436.149078 
z"/>
<path fill="#000001" opacity="1.000000" stroke="none" 
	d="
M828.067261,365.879974 
	C833.288208,366.827606 835.115234,370.597992 835.354492,375.249207 
	C835.599670,380.016113 832.505615,383.966339 827.818787,385.117828 
	C825.587524,385.666016 823.212097,385.817719 820.901245,385.822510 
	C797.094666,385.871948 773.287964,385.861481 749.481262,385.852325 
	C739.516541,385.848480 729.541565,386.080292 719.590027,385.705688 
	C710.000183,385.344696 705.896179,378.874695 709.856201,370.534149 
	C714.571228,369.655090 718.906250,368.137146 723.250366,368.110779 
	C756.486816,367.909210 789.725220,368.029297 822.962463,367.906586 
	C824.666504,367.900299 826.365784,366.585541 828.067261,365.879974 
M724.589600,383.057007 
	C721.789673,383.057007 718.989685,383.057007 716.189758,383.057007 
	C716.191711,383.282898 716.193604,383.508820 716.195557,383.734711 
	C753.068481,383.734711 789.941467,383.734711 826.814392,383.734711 
	C826.815186,383.507385 826.815979,383.280029 826.816772,383.052704 
	C793.065063,383.052704 759.313416,383.052704 724.589600,383.057007 
z"/>
<path fill="#000000" opacity="1.000000" stroke="none" 
	d="
M830.084900,521.789001 
	C835.297058,523.969299 835.474121,528.425476 834.836304,532.973572 
	C834.215149,537.403076 831.369080,539.895813 826.907959,540.449341 
	C825.609436,540.610474 824.300598,540.688660 822.739502,540.522949 
	C823.918091,539.629700 825.353699,539.018372 827.757202,537.994812 
	C824.869995,537.994812 823.052185,537.994812 821.234375,537.994751 
	C788.020264,537.993713 754.806213,538.012756 721.592163,537.962524 
	C718.053101,537.957153 714.514709,537.547119 710.976013,537.324829 
	C707.142822,533.467224 707.188721,529.228455 710.244873,524.491089 
	C716.347961,523.829468 721.944702,523.086487 727.544006,523.066345 
	C759.317871,522.951965 791.092285,523.036865 822.866333,522.957458 
	C825.273438,522.951416 827.678772,522.196045 830.084900,521.789001 
z"/>
<path fill="#000000" opacity="1.000000" stroke="none" 
	d="
M829.078613,469.871918 
	C836.022766,472.264618 837.414917,480.221405 831.469788,485.987244 
	C831.053955,486.059509 830.884766,485.938263 830.707764,485.814575 
	C830.011230,485.798004 829.491699,485.905121 828.985596,486.006348 
	C828.998962,486.000458 829.025574,485.988708 828.554932,486.001038 
	C790.061584,486.017517 752.038879,486.021698 713.844116,485.824341 
	C712.455139,485.399048 711.238342,485.175293 710.021484,484.951477 
	C706.738525,478.039429 707.633606,473.958984 713.634827,470.031738 
	C713.989136,469.968689 713.975220,469.989990 714.336304,470.196411 
	C716.331360,470.597900 717.965271,470.961487 719.599487,470.963196 
	C754.141174,470.999176 788.682922,471.010559 823.224548,470.954742 
	C825.154846,470.951630 827.084045,470.328674 829.029541,469.963440 
	C829.045288,469.932617 829.078613,469.871918 829.078613,469.871918 
z"/>
<path fill="#000001" opacity="1.000000" stroke="none" 
	d="
M829.391052,592.029053 
	C827.779602,592.339600 826.168762,592.917114 824.556641,592.920776 
	C799.234619,592.977661 773.912354,592.933716 748.590332,592.988525 
	C744.571594,592.997192 741.478882,591.723938 739.491333,588.074768 
	C737.453491,584.333191 737.323059,580.411072 740.042603,577.313721 
	C741.813354,575.297119 744.865295,573.237427 747.365845,573.209351 
	C773.684082,572.913574 800.006958,573.037781 826.328491,573.005615 
	C830.114746,573.000977 832.848450,574.699585 834.163696,578.097839 
	C835.737549,582.164062 835.781921,586.249207 832.179321,589.751709 
	C803.913330,590.369629 776.024536,591.001343 748.135803,591.633118 
	C748.133606,591.765076 748.131470,591.897095 748.129333,592.029053 
	C775.216553,592.029053 802.303833,592.029053 829.391052,592.029053 
z"/>
<path fill="#000012" opacity="1.000000" stroke="none" 
	d="
M829.776978,521.565613 
	C827.678772,522.196045 825.273438,522.951416 822.866333,522.957458 
	C791.092285,523.036865 759.317871,522.951965 727.544006,523.066345 
	C721.944702,523.086487 716.347961,523.829468 710.443237,524.174805 
	C713.196777,522.763916 716.248047,520.269897 719.318909,520.245544 
	C754.111267,519.969421 788.906677,520.051147 823.701050,520.126221 
	C825.624573,520.130371 827.546387,520.918823 829.776978,521.565613 
z"/>
<path fill="#000012" opacity="1.000000" stroke="none" 
	d="
M827.693359,365.701752 
	C826.365784,366.585541 824.666504,367.900299 822.962463,367.906586 
	C789.725220,368.029297 756.486816,367.909210 723.250366,368.110779 
	C718.906250,368.137146 714.571228,369.655090 710.119995,370.280823 
	C711.937561,365.228668 716.182007,365.048218 720.410217,365.044250 
	C750.233337,365.016357 780.056580,365.006012 809.879578,365.055328 
	C815.693176,365.064941 821.506165,365.360077 827.693359,365.701752 
z"/>
<path fill="#00021F" opacity="1.000000" stroke="none" 
	d="
M711.129517,537.615356 
	C714.514709,537.547119 718.053101,537.957153 721.592163,537.962524 
	C754.806213,538.012756 788.020264,537.993713 821.234375,537.994751 
	C823.052185,537.994812 824.869995,537.994812 827.757202,537.994812 
	C825.353699,539.018372 823.918091,539.629700 822.341675,540.516235 
	C787.757874,540.850525 753.314636,540.974243 718.872437,540.836121 
	C716.338684,540.825989 713.812622,538.926819 711.129517,537.615356 
z"/>
<path fill="#00021F" opacity="1.000000" stroke="none" 
	d="
M710.217468,485.245148 
	C711.238342,485.175293 712.455139,485.399048 714.207031,486.014038 
	C717.047974,486.597992 719.353760,486.956207 721.659912,486.958710 
	C756.769348,486.997040 791.878723,486.988831 826.994568,487.287598 
	C827.009094,487.781036 827.017151,487.978302 827.025269,488.175598 
	C825.072754,488.443420 823.120605,488.941925 821.167725,488.944702 
	C787.755798,488.992493 754.343018,489.080902 720.932983,488.828217 
	C717.418396,488.801636 713.919556,486.685516 710.217468,485.245148 
z"/>
<path fill="#EBC865" opacity="1.000000" stroke="none" 
	d="
M762.624268,203.575104 
	C761.882935,209.131119 761.000732,214.979462 759.817627,220.766296 
	C757.856384,230.359268 761.646301,239.018051 764.031616,247.889130 
	C765.619568,253.794800 767.676758,259.573181 769.335022,265.461761 
	C769.760498,266.972534 769.470642,268.684723 769.322510,270.621948 
	C766.284668,261.283508 763.551208,251.590866 760.554138,241.980453 
	C756.510498,229.013962 755.943604,216.281082 762.624268,203.575104 
z"/>
<path fill="#000000" opacity="1.000000" stroke="none" 
	d="
M713.978821,469.955780 
	C715.733154,469.620605 717.497437,469.020020 719.262573,469.017273 
	C754.146545,468.963165 789.030640,468.972260 823.914673,469.000397 
	C825.391174,469.001587 826.867493,469.310455 828.711243,469.673950 
	C829.078613,469.871918 829.045288,469.932617 828.559326,469.962830 
	C790.040649,469.992004 752.007935,469.990997 713.975220,469.989990 
	C713.975220,469.989990 713.989136,469.968689 713.978821,469.955780 
z"/>
<path fill="#000000" opacity="1.000000" stroke="none" 
	d="
M828.074707,436.082031 
	C826.517578,436.401123 824.902039,436.913147 823.285767,436.915314 
	C788.722900,436.961273 754.159973,436.954803 719.597046,436.931641 
	C718.282166,436.930756 716.967407,436.661163 715.277466,436.332947 
	C714.902405,436.149078 714.976379,436.040833 715.476196,435.984131 
	C753.282715,435.935364 790.589417,435.943298 827.896179,435.951233 
	C827.896179,435.951233 828.015869,436.037476 828.074707,436.082031 
z"/>
<path fill="#00021F" opacity="1.000000" stroke="none" 
	d="
M829.646851,591.962524 
	C802.303833,592.029053 775.216553,592.029053 748.129333,592.029053 
	C748.131470,591.897095 748.133606,591.765076 748.135803,591.633118 
	C776.024536,591.001343 803.913330,590.369629 831.890503,589.994873 
	C831.286804,590.799866 830.594727,591.347961 829.646851,591.962524 
z"/>
<path fill="#EBC865" opacity="1.000000" stroke="none" 
	d="
M769.082153,273.461517 
	C769.622314,277.102722 770.246582,281.159454 770.404541,285.234253 
	C770.425110,285.765198 767.888672,287.059296 766.816772,286.807343 
	C765.340332,286.460419 763.451782,285.238770 762.947754,283.927490 
	C761.889282,281.174103 761.775635,278.075134 760.991943,275.194794 
	C759.298218,268.969543 757.426758,262.792664 755.761841,256.321655 
	C759.101074,265.540710 762.306458,275.034119 765.511841,284.527527 
	C765.101685,284.832397 764.691528,285.137238 764.281311,285.442108 
	C766.009094,285.599884 767.736877,285.757660 770.211548,285.983643 
	C769.786499,281.662048 769.403992,277.772339 769.082153,273.461517 
z"/>
<path fill="#EBC865" opacity="1.000000" stroke="none" 
	d="
M786.052979,275.425720 
	C785.984924,278.261597 786.139709,281.550049 785.502319,284.677063 
	C785.301819,285.661163 783.000671,286.729675 781.614563,286.796600 
	C780.516174,286.849640 778.407104,285.490540 778.354858,284.657593 
	C777.859741,276.765411 777.013672,268.763947 781.435913,261.232056 
	C780.546265,269.124725 779.362732,277.193848 778.122314,285.651062 
	C780.994873,285.651062 782.570740,285.651062 784.348022,285.651062 
	C784.907898,282.255585 785.438843,279.035736 786.052979,275.425720 
z"/>
<path fill="#EBC865" opacity="1.000000" stroke="none" 
	d="
M788.044189,241.611343 
	C787.807983,240.370895 787.212280,238.615952 787.687378,237.227249 
	C791.070129,227.338303 790.647400,217.669098 786.656250,208.064011 
	C786.225952,207.028397 786.258728,205.800400 786.079041,204.254440 
	C792.927429,215.975525 792.233215,228.526749 788.044189,241.611343 
z"/>
<path fill="#EBC865" opacity="1.000000" stroke="none" 
	d="
M757.590942,285.084717 
	C756.874573,285.716034 755.710327,286.391357 754.735291,287.275330 
	C753.503540,288.392029 751.533142,289.672913 751.525085,290.893707 
	C751.516541,292.195740 753.187439,294.203888 754.548340,294.671051 
	C757.156677,295.566437 760.072021,295.542938 762.845337,295.990936 
	C764.739990,296.296967 766.609924,296.755920 768.754272,297.394409 
	C765.254089,297.438690 761.479980,297.348419 757.729980,296.998840 
	C754.138855,296.664062 750.100464,296.555756 749.751282,291.577393 
	C749.379211,286.273163 753.237427,285.586212 757.590942,285.084717 
z"/>
<path fill="#EBC865" opacity="1.000000" stroke="none" 
	d="
M744.231812,242.264679 
	C741.956665,241.833313 739.399597,240.605362 736.861694,240.643921 
	C731.140686,240.730835 725.429138,241.444519 719.314575,241.927002 
	C727.285217,235.995895 735.627808,237.413437 744.231812,242.264679 
z"/>
<path fill="#EBC865" opacity="1.000000" stroke="none" 
	d="
M720.294922,279.149475 
	C721.730347,278.915833 723.432983,278.915833 724.926941,278.915833 
	C726.160645,276.764252 727.407593,274.589478 728.970459,272.243347 
	C728.398499,275.318329 727.510620,278.564667 726.472717,282.359406 
	C724.464355,281.348083 722.513245,280.365570 720.294922,279.149475 
z"/>
<path fill="#EBC865" opacity="1.000000" stroke="none" 
	d="
M836.584717,269.108429 
	C836.329285,263.068298 836.322144,256.749054 836.387207,250.006134 
	C840.294189,255.926086 839.508789,262.359344 836.584717,269.108429 
z"/>
<path fill="#EBC865" opacity="1.000000" stroke="none" 
	d="
M827.860657,240.668564 
	C821.638306,240.612411 815.174988,240.278946 808.266602,239.921036 
	C814.506042,236.654037 821.093689,237.289703 827.860657,240.668564 
z"/>
<path fill="#EBC865" opacity="1.000000" stroke="none" 
	d="
M818.591797,271.674561 
	C819.485046,272.460480 821.251038,273.440125 821.534241,274.742249 
	C822.347046,278.478729 824.568298,279.044037 828.123535,278.442200 
	C826.406311,279.505646 824.293030,280.531067 822.106018,281.592285 
	C820.839966,277.938751 819.813660,274.977142 818.591797,271.674561 
z"/>
<path fill="#EBC865" opacity="1.000000" stroke="none" 
	d="
M771.625610,189.017715 
	C770.307617,191.390930 768.703308,193.945038 766.757751,196.623932 
	C768.057434,194.232025 769.698425,191.715317 771.625610,189.017715 
z"/>
<path fill="#EBC865" opacity="1.000000" stroke="none" 
	d="
M718.649231,242.035522 
	C717.807251,243.215210 716.660583,244.504501 715.171509,245.837646 
	C716.000916,244.636032 717.172729,243.390594 718.649231,242.035522 
z"/>
<path fill="#EBC865" opacity="1.000000" stroke="none" 
	d="
M756.484131,279.607605 
	C757.008484,280.971130 757.673340,282.692963 758.143188,284.690491 
	C757.507019,283.299408 757.065857,281.632660 756.484131,279.607605 
z"/>
<path fill="#EBC865" opacity="1.000000" stroke="none" 
	d="
M779.448303,192.269562 
	C778.450867,191.234344 777.277710,189.916214 776.091370,188.232178 
	C777.142944,189.239716 778.207764,190.613190 779.448303,192.269562 
z"/>
<path fill="#EBC865" opacity="1.000000" stroke="none" 
	d="
M746.672852,268.423279 
	C747.916687,268.937561 749.354431,269.732422 750.857849,270.832825 
	C749.571228,270.326874 748.218994,269.515381 746.672852,268.423279 
z"/>
<path fill="#EBC865" opacity="1.000000" stroke="none" 
	d="
M776.034546,187.654968 
	C775.261414,187.914246 774.398804,187.901230 773.108276,187.828186 
	C773.486633,185.251343 774.583496,185.195816 776.034546,187.654968 
z"/>
<path fill="#EBC865" opacity="1.000000" stroke="none" 
	d="
M748.198486,245.437515 
	C747.099976,244.837860 745.823242,243.964447 744.455688,242.735840 
	C745.583313,243.308365 746.801758,244.236069 748.198486,245.437515 
z"/>
<path fill="#EBC865" opacity="1.000000" stroke="none" 
	d="
M834.307861,272.875702 
	C834.643799,271.868866 835.251038,270.671082 836.189148,269.322906 
	C835.873047,270.343262 835.226074,271.514008 834.307861,272.875702 
z"/>
<path fill="#000000" opacity="1.000000" stroke="none" 
	d="
M827.376709,488.135254 
	C827.017151,487.978302 827.009094,487.781036 827.274048,487.215759 
	C828.039917,486.561462 828.532776,486.275085 829.025574,485.988708 
	C829.025574,485.988708 828.998962,486.000458 829.305786,486.010742 
	C830.036621,485.993439 830.460693,485.965881 830.884766,485.938293 
	C830.884766,485.938263 831.053955,486.059509 831.139893,486.123566 
	C830.059875,486.823364 828.893982,487.459137 827.376709,488.135254 
z"/>
<path fill="#EBC865" opacity="1.000000" stroke="none" 
	d="
M765.624390,198.024994 
	C765.330383,199.067062 764.762512,200.306992 763.867065,201.716644 
	C764.143188,200.665192 764.746887,199.444016 765.624390,198.024994 
z"/>
<path fill="#EBC865" opacity="1.000000" stroke="none" 
	d="
M836.457275,249.314926 
	C835.776550,248.618149 834.937073,247.635529 834.064270,246.297302 
	C834.786743,246.970825 835.542664,247.999939 836.457275,249.314926 
z"/>
<path fill="#EBC865" opacity="1.000000" stroke="none" 
	d="
M807.626038,239.871674 
	C807.126526,240.326965 806.308167,240.830872 805.263611,241.198517 
	C805.794006,240.681595 806.550598,240.300934 807.626038,239.871674 
z"/>
<path fill="#EBC865" opacity="1.000000" stroke="none" 
	d="
M781.469849,195.368347 
	C780.909912,194.831863 780.201416,194.015182 779.529297,192.838379 
	C780.150818,193.348206 780.736023,194.218185 781.469849,195.368347 
z"/>
<path fill="#EBC865" opacity="1.000000" stroke="none" 
	d="
M751.071289,248.601486 
	C750.569702,248.354279 749.960632,247.823456 749.292664,246.972855 
	C749.810425,247.207993 750.387146,247.762924 751.071289,248.601486 
z"/>
<path fill="#EBC865" opacity="1.000000" stroke="none" 
	d="
M752.912354,273.325256 
	C753.455811,273.841858 754.122131,274.653107 754.874023,275.781555 
	C754.318237,275.272491 753.676758,274.446198 752.912354,273.325256 
z"/>
<path fill="#EBC865" opacity="1.000000" stroke="none" 
	d="
M782.928101,197.711411 
	C782.479370,197.379395 781.978149,196.754410 781.476257,195.800583 
	C781.942200,196.120636 782.408936,196.769531 782.928101,197.711411 
z"/>
<path fill="#EBC865" opacity="1.000000" stroke="none" 
	d="
M785.578369,202.455078 
	C785.174500,202.060272 784.669434,201.335159 784.102783,200.278320 
	C784.519897,200.672653 784.998535,201.398727 785.578369,202.455078 
z"/>
<path fill="#EBC865" opacity="1.000000" stroke="none" 
	d="
M754.972046,276.312805 
	C755.190002,276.523712 755.462585,277.020020 755.859131,277.773987 
	C755.664307,277.553864 755.345459,277.076050 754.972046,276.312805 
z"/>
<path fill="#EBC865" opacity="1.000000" stroke="none" 
	d="
M733.272766,268.069611 
	C733.460999,267.811218 733.971313,267.502411 734.773438,267.123962 
	C734.575134,267.375946 734.085022,267.697571 733.272766,268.069611 
z"/>
<path fill="#EBC865" opacity="1.000000" stroke="none" 
	d="
M828.396606,278.424225 
	C828.561951,278.073517 829.065674,277.689392 829.866516,277.188354 
	C829.687439,277.511230 829.211182,277.951019 828.396606,278.424225 
z"/>
<path fill="#EBC865" opacity="1.000000" stroke="none" 
	d="
M755.104492,254.648727 
	C754.865967,254.443741 754.557922,253.944916 754.136597,253.170425 
	C754.360596,253.381470 754.697876,253.868179 755.104492,254.648727 
z"/>
<path fill="#EBC865" opacity="1.000000" stroke="none" 
	d="
M784.004150,199.685486 
	C783.784485,199.483383 783.520081,199.002579 783.123413,198.277710 
	C783.313904,198.491348 783.636658,198.949066 784.004150,199.685486 
z"/>
<path fill="#EBC865" opacity="1.000000" stroke="none" 
	d="
M830.916992,242.679062 
	C830.565186,242.656464 830.032654,242.364029 829.233459,241.954559 
	C829.556641,242.028091 830.146362,242.218658 830.916992,242.679062 
z"/>
<path fill="#EBC865" opacity="1.000000" stroke="none" 
	d="
M752.532471,250.439026 
	C752.212219,250.292572 751.763550,249.849609 751.213318,249.108917 
	C751.542480,249.254974 751.973267,249.698761 752.532471,250.439026 
z"/>
<path fill="#EBC865" opacity="1.000000" stroke="none" 
	d="
M766.669250,196.838837 
	C766.726807,197.093582 766.449890,197.337204 766.036438,197.819199 
	C766.044861,197.647614 766.189819,197.237671 766.669250,196.838837 
z"/>
<path fill="#EBC865" opacity="1.000000" stroke="none" 
	d="
M753.101929,251.684937 
	C752.883728,251.746765 752.669312,251.453934 752.240173,250.981384 
	C752.385559,250.977844 752.745605,251.154053 753.101929,251.684937 
z"/>
<path fill="#EBC865" opacity="1.000000" stroke="none" 
	d="
M713.707520,246.942444 
	C713.775696,247.100052 713.596802,247.367355 713.263306,247.817291 
	C713.220947,247.680725 713.338257,247.364792 713.707520,246.942444 
z"/>
<path fill="#EBC865" opacity="1.000000" stroke="none" 
	d="
M732.251831,269.054688 
	C732.231750,268.893341 732.495789,268.642242 732.919861,268.177979 
	C732.898560,268.298218 732.717285,268.631561 732.251831,269.054688 
z"/>
<path fill="#EBC865" opacity="1.000000" stroke="none" 
	d="
M749.107056,246.695435 
	C748.888306,246.745712 748.665466,246.461105 748.209717,246.027054 
	C748.352234,246.038574 748.727600,246.199554 749.107056,246.695435 
z"/>
<path fill="#EBC865" opacity="1.000000" stroke="none" 
	d="
M714.753418,245.986053 
	C714.769531,246.150482 714.503845,246.380386 714.082947,246.825104 
	C714.109070,246.710464 714.290344,246.381012 714.753418,245.986053 
z"/>
<path fill="#EBC865" opacity="1.000000" stroke="none" 
	d="
M833.970703,245.716919 
	C833.827332,245.728531 833.598938,245.478790 833.166016,245.079498 
	C833.269531,245.105148 833.577576,245.280350 833.970703,245.716919 
z"/>
<path fill="#EBC865" opacity="1.000000" stroke="none" 
	d="
M772.710571,187.913208 
	C772.748108,188.126831 772.472839,188.364120 772.046692,188.827087 
	C772.063110,188.680801 772.230408,188.308838 772.710571,187.913208 
z"/>
<path fill="#EBC865" opacity="1.000000" stroke="none" 
	d="
M833.044067,244.748474 
	C832.883484,244.765427 832.634338,244.494827 832.170532,244.059647 
	C832.289062,244.083679 832.622253,244.272293 833.044067,244.748474 
z"/>
<path fill="#EBC865" opacity="1.000000" stroke="none" 
	d="
M752.002869,272.237518 
	C752.153137,272.226318 752.382568,272.492615 752.824219,272.918640 
	C752.718262,272.890564 752.400146,272.702759 752.002869,272.237518 
z"/>
<path fill="#EBC865" opacity="1.000000" stroke="none" 
	d="
M832.011841,243.758621 
	C831.849854,243.772766 831.623291,243.509811 831.194458,243.075653 
	C831.310486,243.096802 831.628845,243.289154 832.011841,243.758621 
z"/>
<path fill="#EBC865" opacity="1.000000" stroke="none" 
	d="
M756.013672,278.333679 
	C756.186646,278.284485 756.396301,278.556519 756.789185,279.011353 
	C756.665039,279.014404 756.357727,278.834686 756.013672,278.333679 
z"/>
<path fill="#EBC865" opacity="1.000000" stroke="none" 
	d="
M829.166382,241.689209 
	C828.934448,241.747421 828.690491,241.490112 828.224121,241.069931 
	C828.385864,241.062607 828.770081,241.218124 829.166382,241.689209 
z"/>
<path fill="#EBC865" opacity="1.000000" stroke="none" 
	d="
M830.250671,277.057007 
	C830.229675,276.895142 830.496826,276.647400 830.922974,276.182587 
	C830.900879,276.300751 830.719849,276.635925 830.250671,277.057007 
z"/>
<path fill="#EBC865" opacity="1.000000" stroke="none" 
	d="
M831.254395,276.028503 
	C831.230591,275.857635 831.497192,275.628143 831.922729,275.181915 
	C831.902649,275.300079 831.723694,275.634949 831.254395,276.028503 
z"/>
<path fill="#EBC865" opacity="1.000000" stroke="none" 
	d="
M832.255859,275.020630 
	C832.237732,274.848633 832.509033,274.615326 832.939148,274.167816 
	C832.913696,274.288849 832.729492,274.624084 832.255859,275.020630 
z"/>
<path fill="#EBC865" opacity="1.000000" stroke="none" 
	d="
M833.227905,274.000092 
	C833.218445,273.850952 833.473633,273.629425 833.898315,273.215057 
	C833.876038,273.324036 833.684326,273.625885 833.227905,274.000092 
z"/>
<path fill="#EBC865" opacity="1.000000" stroke="none" 
	d="
M763.699829,201.829681 
	C763.770386,202.039444 763.541565,202.304489 763.152710,202.784561 
	C763.128601,202.628036 763.264465,202.256500 763.699829,201.829681 
z"/>
<path fill="#EBC865" opacity="1.000000" stroke="none" 
	d="
M751.009155,271.233154 
	C751.157471,271.226990 751.383484,271.495087 751.825500,271.913086 
	C751.723328,271.877808 751.405090,271.692596 751.009155,271.233154 
z"/>
<path fill="#EBC865" opacity="1.000000" stroke="none" 
	d="
M817.835815,270.337524 
	C818.087036,270.272736 818.299316,270.574219 818.762695,271.014771 
	C818.608154,271.003845 818.202515,270.853821 817.835815,270.337524 
z"/>
<path fill="#EBC865" opacity="1.000000" stroke="none" 
	d="
M730.281128,270.986511 
	C730.287354,270.869293 730.534729,270.630157 730.919006,270.171753 
	C730.877991,270.256531 730.700134,270.560547 730.281128,270.986511 
z"/>
<path fill="#EBC865" opacity="1.000000" stroke="none" 
	d="
M786.080200,203.668472 
	C785.899292,203.732620 785.659302,203.456558 785.236816,202.976028 
	C785.376587,202.957123 785.698853,203.142685 786.080200,203.668472 
z"/>
<path fill="#EBC865" opacity="1.000000" stroke="none" 
	d="
M817.147217,270.129639 
	C817.276123,269.961487 817.443298,270.069031 817.582153,270.384460 
	C817.633606,270.486206 817.265137,270.299255 817.147217,270.129639 
z"/>
<path fill="#EBC865" opacity="1.000000" stroke="none" 
	d="
M731.239319,269.999634 
	C731.229492,269.851532 731.494080,269.618683 731.916748,269.173767 
	C731.887878,269.279449 731.700745,269.597168 731.239319,269.999634 
z"/>
<path fill="#EBC865" opacity="1.000000" stroke="none" 
	d="
M754.013367,252.682648 
	C753.847046,252.706573 753.612854,252.435272 753.180908,251.998718 
	C753.303894,252.018127 753.624695,252.202774 754.013367,252.682648 
z"/>
<path fill="#000000" opacity="1.000000" stroke="none" 
	d="
M179.200562,559.672119 
	C178.967590,552.301453 178.858215,544.571289 178.984100,536.845032 
	C179.014008,535.009460 179.831833,533.186707 180.638535,531.192993 
	C180.973709,531.461121 180.957581,531.894409 180.797592,533.004578 
	C180.532547,535.768372 180.411377,537.855164 180.290192,539.942017 
	C179.996872,546.399414 179.703552,552.856750 179.200562,559.672119 
z"/>
<path fill="#000000" opacity="1.000000" stroke="none" 
	d="
M225.207886,508.462219 
	C225.771896,509.117981 226.930008,510.164276 226.954178,511.236176 
	C227.116867,518.447937 227.038879,525.665161 226.028687,532.911011 
	C226.028687,530.562805 226.028687,528.214600 226.003448,525.433105 
	C225.744598,519.621460 225.510971,514.242981 225.207886,508.462219 
z"/>
<path fill="#000000" opacity="1.000000" stroke="none" 
	d="
M181.975555,499.536621 
	C181.527222,493.368256 181.059738,486.751678 180.592255,480.135101 
	C181.068619,480.114594 181.544998,480.094086 182.021378,480.073578 
	C182.021378,483.410583 182.021378,486.747589 182.041183,490.542297 
	C182.026123,493.696136 181.991257,496.392273 181.975555,499.536621 
z"/>
<path fill="#000000" opacity="1.000000" stroke="none" 
	d="
M224.805450,486.462769 
	C224.992340,491.421600 225.235977,496.847076 225.264053,502.622833 
	C224.986404,497.625214 224.924301,492.277313 224.805450,486.462769 
z"/>
<path fill="#001C3B" opacity="1.000000" stroke="none" 
	d="
M180.559677,539.752747 
	C180.411377,537.855164 180.532547,535.768372 180.810638,533.329834 
	C180.921432,535.173279 180.875305,537.368347 180.559677,539.752747 
z"/>
<path fill="#000000" opacity="1.000000" stroke="none" 
	d="
M244.985748,559.919556 
	C244.507675,556.048279 244.056671,552.207458 243.605682,548.366699 
	C244.041565,548.335327 244.477463,548.303894 244.913361,548.272522 
	C244.913361,551.859009 244.913361,555.445496 244.923599,559.487305 
	C244.933838,559.942688 245.012833,559.950073 244.985748,559.919556 
z"/>
<path fill="#001C3B" opacity="1.000000" stroke="none" 
	d="
M537.514282,438.574890 
	C544.637878,443.098633 551.707642,444.982056 559.610352,441.662689 
	C565.418762,439.222992 569.018433,435.088562 569.827576,428.653107 
	C576.731689,432.444122 579.759827,440.710815 577.446838,448.997650 
	C573.683105,462.481903 563.880798,470.740814 551.688477,475.808838 
	C528.652161,485.384399 505.662170,484.431854 483.986694,471.803070 
	C477.262268,467.885223 471.711151,461.748932 466.167145,456.094635 
	C463.326050,453.196991 461.949066,452.657013 459.297028,456.069580 
	C443.308228,476.643219 421.578583,483.486176 396.502167,481.413849 
	C380.903046,480.124695 367.056244,474.440460 356.230255,462.700317 
	C350.344299,456.317322 347.040955,448.851501 348.008148,439.936920 
	C348.526825,435.156036 349.988281,430.912506 354.327576,428.824615 
	C356.670074,432.451508 358.234009,436.520142 361.142670,439.031067 
	C367.065002,444.143524 374.536987,444.769379 381.334106,441.433960 
	C386.730164,438.786072 391.492920,434.630096 396.096252,430.635925 
	C402.733795,424.876801 408.332886,417.716644 415.517456,412.835907 
	C429.361023,403.431458 446.201904,405.265259 458.899475,416.409119 
	C461.499512,418.691010 463.243134,419.133972 466.018829,416.543427 
	C477.337769,405.979584 492.687958,403.659851 506.166260,411.305664 
	C512.415405,414.850555 517.703247,420.174591 523.176575,424.977295 
	C528.032898,429.238556 532.543030,433.894379 537.514282,438.574890 
z"/>
<path fill="#001C3C" opacity="1.000000" stroke="none" 
	d="
M551.954468,305.932922 
	C557.174927,311.027618 562.070129,315.949219 566.988342,320.847717 
	C568.086365,321.941345 569.274475,322.944092 570.403320,324.007507 
	C570.954285,324.526520 571.862549,325.042419 571.932129,325.638733 
	C572.710205,332.305389 573.933350,338.988068 573.926575,345.665283 
	C573.908264,363.831879 566.827759,378.482788 550.374146,387.285553 
	C533.428162,396.351746 516.469971,395.109222 500.669342,384.580261 
	C490.465271,377.780640 483.902222,367.789886 482.108917,355.474304 
	C481.149689,348.886505 477.698639,345.786285 471.653931,344.716797 
	C463.290222,343.237000 455.126160,343.412811 447.266846,347.264038 
	C443.970520,348.879333 442.416321,351.135986 441.671692,354.802979 
	C436.769379,378.945770 419.020020,393.212280 394.523895,393.028748 
	C374.438660,392.878235 356.351990,378.875061 351.313019,359.187958 
	C350.165253,354.703674 348.981903,351.716797 343.420929,351.671997 
	C338.538239,351.632629 336.630554,348.321228 337.015625,342.865173 
	C337.335419,338.334259 339.506897,335.611786 344.313354,335.957581 
	C348.488098,336.257874 350.508820,334.505127 351.835876,330.488495 
	C357.787659,312.474243 374.481415,299.641693 392.284607,298.982361 
	C414.320435,298.166290 430.699585,307.825256 438.656311,326.795502 
	C440.417267,330.993896 442.097321,331.898376 446.423065,330.132935 
	C456.831451,325.885223 467.507599,325.660950 478.096497,329.819366 
	C480.938965,330.935638 483.015076,331.049225 484.415497,327.551941 
	C495.194244,300.633820 527.307434,291.014893 551.954468,305.932922 
M369.538879,361.824188 
	C376.363525,372.763367 389.049957,378.482544 400.601837,376.345123 
	C415.322968,373.621368 427.219910,362.424011 426.143280,343.576111 
	C425.133087,325.891174 408.375580,312.321838 390.924042,315.561096 
	C370.295471,319.390045 359.240326,341.258514 369.538879,361.824188 
M504.937225,325.441437 
	C493.878265,338.120392 494.701111,358.714264 506.666626,368.724518 
	C517.807922,378.045349 531.551270,379.269562 543.719727,372.025085 
	C554.523621,365.593018 559.965881,352.248779 556.749939,338.619690 
	C553.996521,326.949982 546.404541,319.382416 534.872314,316.292633 
	C523.472900,313.238373 513.566467,316.345581 504.937225,325.441437 
z"/>
<path fill="#001535" opacity="1.000000" stroke="none" 
	d="
M827.575745,435.770264 
	C790.589417,435.943298 753.282715,435.935364 715.513672,435.930359 
	C717.985657,435.323029 720.917908,434.194061 723.854675,434.182098 
	C755.899292,434.051483 787.944641,434.063263 819.989441,434.156799 
	C822.412720,434.163849 824.833435,435.090240 827.575745,435.770264 
z"/>
<path fill="#001535" opacity="1.000000" stroke="none" 
	d="
M725.075684,383.054871 
	C759.313416,383.052704 793.065063,383.052704 826.816772,383.052704 
	C826.815979,383.280029 826.815186,383.507385 826.814392,383.734711 
	C789.941467,383.734711 753.068481,383.734711 716.195557,383.734711 
	C716.193604,383.508820 716.191711,383.282898 716.189758,383.057007 
	C718.989685,383.057007 721.789673,383.057007 725.075684,383.054871 
z"/>
<path fill="#00021F" opacity="1.000000" stroke="none" 
	d="
M714.336304,470.196411 
	C752.007935,469.990997 790.040649,469.992004 828.543579,469.993652 
	C827.084045,470.328674 825.154846,470.951630 823.224548,470.954742 
	C788.682922,471.010559 754.141174,470.999176 719.599487,470.963196 
	C717.965271,470.961487 716.331360,470.597900 714.336304,470.196411 
z"/>
<path fill="#001535" opacity="1.000000" stroke="none" 
	d="
M828.554932,486.001038 
	C828.532776,486.275085 828.039917,486.561462 827.267639,486.919647 
	C791.878723,486.988831 756.769348,486.997040 721.659912,486.958710 
	C719.353760,486.956207 717.047974,486.597992 714.379089,486.215546 
	C752.038879,486.021698 790.061584,486.017517 828.554932,486.001038 
z"/>
<path fill="#001535" opacity="1.000000" stroke="none" 
	d="
M830.707764,485.814575 
	C830.460693,485.965881 830.036621,485.993439 829.292358,486.016632 
	C829.491699,485.905121 830.011230,485.798004 830.707764,485.814575 
z"/>
<path fill="#000002" opacity="1.000000" stroke="none" 
	d="
M369.365295,361.491150 
	C359.240326,341.258514 370.295471,319.390045 390.924042,315.561096 
	C408.375580,312.321838 425.133087,325.891174 426.143280,343.576111 
	C427.219910,362.424011 415.322968,373.621368 400.601837,376.345123 
	C389.049957,378.482544 376.363525,372.763367 369.365295,361.491150 
z"/>
<path fill="#000002" opacity="1.000000" stroke="none" 
	d="
M505.168884,325.168488 
	C513.566467,316.345581 523.472900,313.238373 534.872314,316.292633 
	C546.404541,319.382416 553.996521,326.949982 556.749939,338.619690 
	C559.965881,352.248779 554.523621,365.593018 543.719727,372.025085 
	C531.551270,379.269562 517.807922,378.045349 506.666626,368.724518 
	C494.701111,358.714264 493.878265,338.120392 505.168884,325.168488 
z"/>
</svg>